<svg width="826" height="751" viewBox="0 0 826 751" fill="none" xmlns="http://www.w3.org/2000/svg">
<path d="M822.747 750.073H26.6981C24.994 750.073 23.6136 749.525 23.6136 748.85C23.6136 748.176 24.994 747.626 26.6981 747.626H822.747C824.45 747.626 825.832 748.175 825.832 748.85C825.832 749.526 824.45 750.073 822.747 750.073Z" fill="#3F3D56"/>
<path d="M15 700.253C59.5422 731.14 119.058 750 184.434 750C237.909 750 299.372 732.266 350 706.487C345.996 696.438 340.418 688.293 332.661 684.168C332.469 684.062 332.269 683.957 332.07 683.863C328.758 682.215 325.1 681.319 321.377 681.243C275.748 679.999 280.889 729.778 223.694 661.332C188.123 618.765 147.829 604.118 120.285 608.852C119.777 608.94 119.276 609.033 118.775 609.133C102.812 612.343 91.3919 622.237 88.0952 637.065C79.0977 677.51 105.447 709.866 57.2478 699.91C43.3019 697.101 28.8958 697.217 15 700.253Z" fill="#75484E"/>
<path d="M97.9994 728.004C124.74 717.516 142.889 700.553 151.942 677.587C158.664 660.536 160.323 640.498 156.872 618.03C154.301 601.461 149.18 585.423 141.695 570.506C102.035 491.066 104.294 443.347 113.172 417.305C122.906 388.751 142.56 379.139 142.757 379.045L142.159 377.723C141.956 377.818 121.791 387.645 111.838 416.776C106.101 433.57 104.797 453.474 107.963 475.935C111.905 503.888 122.824 535.93 140.418 571.174C147.834 585.954 152.909 601.845 155.457 618.263C161.117 655.113 155.655 703.829 97.4908 726.644L97.9994 728.004Z" fill="#3F3D56"/>
<path d="M155.76 608C179.803 596.193 179.134 577.479 174.339 563.86C172.212 557.853 169.024 552.179 164.892 547.047C143.254 520.063 141.298 502.535 143.468 492.581C145.825 481.773 153.385 477.336 153.46 477.292L152.507 476C152.172 476.193 144.247 480.844 141.751 492.292C138.501 507.196 145.807 525.917 163.463 547.936C167.49 552.936 170.596 558.464 172.668 564.316C177.272 577.391 177.928 595.35 154.908 606.655L155.76 608Z" fill="#3F3D56"/>
<path d="M96.6996 445L97.4093 443.715C78.2267 432.924 78.7731 415.781 82.6096 403.301C84.3362 397.715 86.9252 392.437 90.2807 387.666C104.994 366.648 111.082 348.777 108.374 334.55C106.295 323.624 99.6899 319.184 99.4101 319L98.615 320.232C98.6786 320.275 105.01 324.566 106.954 334.886C108.742 344.381 107.094 361.098 89.0901 386.817C85.6464 391.716 82.99 397.132 81.2179 402.864C77.222 415.865 76.6641 433.728 96.6996 445Z" fill="#3F3D56"/>
<path d="M48.048 388.047C51.1966 392.92 56.1361 396.33 61.7787 397.529C67.4202 398.728 73.3034 397.616 78.1335 394.44C82.9636 391.263 86.3444 386.281 87.5333 380.588C88.7213 374.896 87.6201 368.961 84.4705 364.089L84.4648 364.079C77.9033 353.935 44.8738 343 44.8738 343C44.8738 343 41.4873 377.902 48.048 388.047Z" fill="#3D9D52"/>
<path d="M70.0479 309.047C73.1975 313.919 78.1361 317.33 83.7786 318.529C89.421 319.728 95.3041 318.617 100.134 315.439C104.963 312.262 108.345 307.28 109.533 301.588C110.722 295.897 109.62 289.961 106.471 285.089L106.464 285.08C99.9039 274.935 66.8738 264 66.8738 264C66.8738 264 63.4874 298.902 70.0479 309.047Z" fill="#248439"/>
<path d="M49.8864 493.606C51.2818 493.277 84.1879 485.572 95.1598 490.833C99.7773 493.047 103.509 496.778 105.741 501.413C107.974 506.048 108.573 511.309 107.442 516.332C106.311 521.356 103.516 525.842 99.5162 529.053C95.5174 532.264 90.5527 534.009 85.4376 534C83.8001 534.002 82.1682 533.82 80.5704 533.459C78.9196 533.087 77.3161 532.53 75.7893 531.798C64.8174 526.529 50.0246 495.941 49.4002 494.638L49 493.818L49.8864 493.606ZM76.4136 530.473C78.912 531.671 81.6195 532.362 84.3828 532.507C87.1462 532.651 89.9104 532.246 92.5176 531.314C95.1258 530.383 97.5258 528.943 99.5806 527.077C101.636 525.211 103.306 522.956 104.496 520.441C105.686 517.925 106.372 515.198 106.515 512.415C106.659 509.631 106.257 506.847 105.331 504.221C104.406 501.595 102.977 499.177 101.124 497.108C99.2721 495.038 97.033 493.356 94.5345 492.157C91.9775 490.928 88.0685 490.467 83.6071 490.467C71.4007 490.467 55.082 493.943 51.1144 494.828C53.592 499.834 66.8664 525.892 76.4136 530.473Z" fill="#3F3D56"/>
<path d="M163.375 382C168.946 382.009 174.318 379.904 178.431 376.098C187.347 367.866 192.639 334.325 192.86 332.901L193 332L192.101 332.058C190.681 332.149 157.214 334.399 148.299 342.632C144.964 345.708 142.626 349.735 141.593 354.183C140.561 358.63 140.881 363.29 142.513 367.55C144.144 371.809 147.009 375.469 150.733 378.048C154.457 380.628 158.863 382.005 163.375 382ZM191.286 333.583C190.363 339.083 185.215 367.857 177.459 375.02C173.359 378.802 167.943 380.782 162.403 380.522C156.862 380.262 151.651 377.784 147.914 373.633C144.177 369.482 142.22 363.999 142.475 358.388C142.729 352.777 145.174 347.497 149.271 343.711C157.027 336.55 185.793 334.007 191.286 333.583Z" fill="#3F3D56"/>
<path d="M165 438.279C162.918 440.198 161.23 442.514 160.033 445.092C158.836 447.671 158.152 450.463 158.023 453.308C157.893 456.154 158.319 458.998 159.276 461.677C160.233 464.356 161.703 466.818 163.602 468.923C165.5 471.028 167.791 472.735 170.342 473.945C172.893 475.156 175.655 475.846 178.47 475.977C181.284 476.109 184.098 475.678 186.748 474.711C189.399 473.743 191.834 472.256 193.917 470.337C202.674 462.265 208 428 208 428C208 428 173.757 430.207 165 438.279Z" fill="#0ABA31"/>
<path d="M114.673 440.943C114.081 438.143 114.45 435.232 115.721 432.694C116.991 430.154 119.086 428.138 121.659 426.978C122.473 426.619 123.324 426.347 124.196 426.169C130.678 424.837 146.988 433.203 147.675 433.556L148.486 433.973L147.914 434.678C147.464 435.232 137.657 447.218 131.04 450.168C130.514 450.409 129.964 450.593 129.399 450.714C126.184 451.374 122.827 450.716 120.066 448.884C117.305 447.052 115.365 444.196 114.673 440.943ZM120.852 447.665C122.058 448.473 123.408 449.031 124.824 449.309C126.24 449.586 127.695 449.577 129.1 449.281C134.308 448.212 143.758 437.341 146.203 434.444C142.789 432.753 129.708 426.53 124.494 427.602C122.376 428.038 120.44 429.101 118.931 430.655C117.423 432.209 116.41 434.184 116.019 436.332C115.63 438.48 115.881 440.704 116.741 442.721C117.601 444.738 119.032 446.459 120.852 447.665Z" fill="#3F3D56"/>
<path d="M174.774 239.169L186 231.113C177.279 230.249 173.696 234.517 172.23 237.895C165.417 235.357 158 238.683 158 238.683L180.46 246C179.327 243.284 177.355 240.915 174.774 239.169Z" fill="#3F3D56"/>
<path d="M582.5 307C599.345 307 613 294.464 613 279C613 263.536 599.345 251 582.5 251C565.655 251 552 263.536 552 279C552 294.464 565.655 307 582.5 307Z" fill="#2F2E41"/>
<path d="M634 346C654.435 346 671 331.002 671 312.5C671 293.998 654.435 279 634 279C613.565 279 597 293.998 597 312.5C597 331.002 613.565 346 634 346Z" fill="#2F2E41"/>
<path d="M677 601.808L658.844 631C658.844 631 635.101 609.423 647.671 603.712L667.224 598L677 601.808Z" fill="#FFB8B8"/>
<path d="M644.5 679L650 700.048L633.5 705L628 680.858L644.5 679Z" fill="#FFB8B8"/>
<path d="M679.273 462.391L682.871 495.657C682.871 495.657 747.652 549.762 725.314 570C702.977 590.238 675.055 606.681 675.055 606.681L662.491 598.459L691.11 563.043L633.173 525.73L646.436 681.94L626.193 687L580.82 528.892C580.82 528.892 566.859 478.297 601.063 453L679.273 462.391Z" fill="#2F2E41"/>
<path d="M638.716 699.734C638.716 699.734 649.35 687.723 654.313 698.469C657.583 705.859 660.191 713.469 662.111 721.227C662.111 721.227 680.544 745.881 652.186 742.72C623.829 739.559 632.336 728.181 632.336 728.181C630.827 727.31 629.627 726.076 628.874 724.621C628.121 723.166 627.846 721.551 628.082 719.962C628.791 714.273 632.336 700.998 632.336 700.998C632.336 700.998 635.881 695.308 638.716 699.734Z" fill="#2F2E41"/>
<path d="M668.124 617.758C668.124 617.758 674.361 623.236 664.089 632.258C664.089 632.258 662.621 657.392 649.413 654.814C636.205 652.237 631.802 620.658 633.27 617.436C634.737 614.213 631.068 590.368 639.874 591.013C648.679 591.657 659.686 600.035 659.686 600.035C659.686 600.035 640.608 615.502 658.952 625.814C658.952 625.814 663.722 624.203 668.124 617.758Z" fill="#2F2E41"/>
<path d="M615 372.747L669 374C657.1 359.11 654.86 341.544 659.763 322L624.237 328.265C631.078 344.215 631.196 357.897 615 372.747Z" fill="#FFB8B8"/>
<path d="M597.904 454.353L681.044 475L697 377.39C696.674 373.001 694.626 368.853 691.211 365.668C687.796 362.483 683.231 360.462 678.311 359.958L659.202 358L624.678 361.128L608.349 365.226C603.774 366.374 599.769 368.863 596.987 372.286C594.204 375.71 592.807 379.869 593.021 384.087L597.904 454.353Z" fill="#DBDBDB"/>
<path d="M677.225 457.079L690.606 471L723 439.994L710.957 386.338C709.52 379.938 705.996 374.067 700.833 369.473C695.669 364.879 689.101 361.77 681.965 360.542L673 359L692.718 431.136L677.225 457.079Z" fill="#DBDBDB"/>
<path d="M677.701 476.565L687 463.98L679.062 456L666.17 459.381C664.348 459.859 662.68 460.802 661.327 462.119C659.974 463.436 658.982 465.082 658.449 466.897C657.915 468.713 657.856 470.636 658.279 472.481C658.702 474.326 659.592 476.029 660.863 477.427C661.95 478.622 663.287 479.561 664.777 480.177C666.268 480.792 667.875 481.068 669.484 480.986C671.093 480.903 672.665 480.464 674.085 479.7C675.506 478.936 676.741 477.865 677.701 476.565Z" fill="#FFB8B8"/>
<path d="M613.775 460.079L600.394 474L568 442.994L580.043 389.338C581.48 382.938 585.004 377.067 590.167 372.473C595.331 367.879 601.899 364.77 609.035 363.542L618 362L598.282 434.136L613.775 460.079Z" fill="#DBDBDB"/>
<path d="M612.619 478.92L603 467.342L611.211 460L624.548 463.111C626.433 463.55 628.159 464.418 629.559 465.63C630.958 466.841 631.984 468.355 632.536 470.026C633.088 471.696 633.149 473.465 632.711 475.163C632.273 476.86 631.353 478.427 630.038 479.712C628.914 480.812 627.531 481.676 625.989 482.242C624.447 482.808 622.784 483.063 621.12 482.987C619.455 482.911 617.83 482.507 616.36 481.804C614.891 481.101 613.613 480.116 612.619 478.92Z" fill="#FFB8B8"/>
<path d="M639 337C652.255 337 663 327.374 663 315.5C663 303.626 652.255 294 639 294C625.745 294 615 303.626 615 315.5C615 327.374 625.745 337 639 337Z" fill="#FFB8B8"/>
<path d="M665 313H623.575L611 297.808C623.372 288.138 638.856 286.405 656.123 289.221L665 313Z" fill="#2F2E41"/>
<path d="M274.5 269C284.717 269 293 260.941 293 251C293 241.059 284.717 233 274.5 233C264.283 233 256 241.059 256 251C256 260.941 264.283 269 274.5 269Z" fill="#3F3D56"/>
<path d="M478 404C487.389 404 495 396.837 495 388C495 379.163 487.389 372 478 372C468.611 372 461 379.163 461 388C461 396.837 468.611 404 478 404Z" fill="white"/>
<path d="M536 292.632H532.661V202.922C532.661 196.103 531.292 189.352 528.631 183.052C525.971 176.753 522.072 171.029 517.156 166.207C512.24 161.386 506.404 157.562 499.981 154.952C493.559 152.343 486.675 151 479.723 151H285.939C278.987 151 272.103 152.343 265.68 154.952C259.257 157.562 253.421 161.386 248.505 166.207C243.59 171.029 239.69 176.753 237.03 183.052C234.369 189.352 233 196.103 233 202.922V695.078C233 701.897 234.369 708.648 237.03 714.948C239.69 721.247 243.59 726.971 248.505 731.793C253.421 736.614 259.257 740.438 265.68 743.048C272.103 745.657 278.987 747 285.939 747H479.723C486.675 747 493.559 745.657 499.981 743.048C506.404 740.438 512.24 736.614 517.156 731.793C522.072 726.971 525.971 721.247 528.632 714.948C531.292 708.648 532.661 701.897 532.661 695.078V356.489H536V292.632Z" fill="black"/>
<path d="M481.579 164H456.357C457.517 166.802 457.96 169.842 457.646 172.853C457.333 175.863 456.273 178.752 454.56 181.264C452.847 183.775 450.533 185.834 447.822 187.257C445.112 188.68 442.088 189.424 439.017 189.424H328.319C325.247 189.424 322.223 188.68 319.513 187.257C316.802 185.834 314.489 183.775 312.776 181.264C311.062 178.752 310.003 175.863 309.689 172.853C309.376 169.842 309.819 166.802 310.978 164H287.42C282.244 164 277.118 165.005 272.335 166.957C267.552 168.909 263.207 171.77 259.546 175.377C255.885 178.984 252.982 183.266 251.001 187.979C249.02 192.692 248 197.743 248 202.844V695.156C248 700.257 249.02 705.308 251.001 710.021C252.982 714.734 255.885 719.016 259.546 722.623C263.207 726.23 267.552 729.091 272.335 731.043C277.118 732.995 282.244 734 287.42 734H481.579C486.756 734 491.882 732.995 496.665 731.043C501.448 729.091 505.793 726.23 509.454 722.623C513.115 719.016 516.018 714.734 517.999 710.021C519.98 705.308 521 700.257 521 695.156V202.844C521 197.743 519.98 192.692 517.999 187.979C516.018 183.266 513.115 178.984 509.454 175.377C505.793 171.77 501.448 168.909 496.665 166.957C491.882 165.005 486.756 164 481.579 164Z" fill="white"/>
<path d="M437 493H473V484H437V493Z" fill="#6C63FF"/>
<path d="M306 493H320V484H306V493Z" fill="#6C63FF"/>
<path d="M280 493H293V484H280V493Z" fill="#6C63FF"/>
<path d="M333 493H423V484H333V493Z" fill="#6C63FF"/>
<path d="M353 552H367V542H353V552Z" fill="#6C63FF"/>
<path d="M327 552H339V542H327V552Z" fill="#6C63FF"/>
<path d="M381 552H471V542H381V552Z" fill="#6C63FF"/>
<path d="M328 514H367V506H328V514Z" fill="#6C63FF"/>
<path d="M278 514H314V506H278V514Z" fill="#6C63FF"/>
<path d="M483 514H495V506H483V514Z" fill="#6C63FF"/>
<path d="M379 514H469V506H379V514Z" fill="#6C63FF"/>
<path d="M444 524H406V532H444V524Z" fill="#6C63FF"/>
<path d="M495 524H457V532H495V524Z" fill="#6C63FF"/>
<path d="M290 524H278V532H290V524Z" fill="#6C63FF"/>
<path d="M394 524H304V532H394V524Z" fill="#6C63FF"/>
<path d="M384.5 411C424.541 411 457 379.66 457 341C457 302.34 424.541 271 384.5 271C344.459 271 312 302.34 312 341C312 379.66 344.459 411 384.5 411Z" fill="#6C63FF"/>
<path d="M379 366C392.255 366 403 355.703 403 343C403 330.297 392.255 320 379 320C365.745 320 355 330.297 355 343C355 355.703 365.745 366 379 366Z" fill="white"/>
<path d="M381.508 344.217C380.081 341.996 380.802 338.976 379.802 336.528C378.231 332.685 373.348 331.784 369.251 331.434C366.536 331.081 363.788 331.089 361.076 331.456C359.877 331.657 358.741 332.138 357.757 332.859C356.773 333.581 355.968 334.524 355.406 335.614C354.8 336.844 354.953 332.991 355.341 328.045C355.734 322.997 357.702 318.207 360.959 314.363C364.217 310.519 368.597 307.821 373.468 306.656C373.526 306.642 373.583 306.629 373.64 306.616C378.629 305.452 383.772 304.595 388.857 305.199C393.941 305.803 399.01 308.023 402.183 312.087C403.633 313.944 404.659 316.135 406.277 317.843C409.122 320.846 413.339 321.938 417.212 323.331C421.593 324.907 425.852 327.068 429.203 330.328C432.553 333.589 434.928 338.057 434.999 342.759C435.08 348.244 431.631 353.905 426.072 354.987C425.106 355.157 424.192 355.556 423.407 356.15C418.099 360.313 424.154 364.67 424.112 369.356C424.077 373.267 419.773 375.815 415.911 375.997C412.301 376.063 408.78 374.857 405.953 372.585C403.126 370.313 401.168 367.117 400.414 363.545C399.832 360.336 400.282 357.04 400.661 353.8C401.094 350.091 393.198 341.358 398.414 347.759C399.432 348.976 400.119 350.439 400.408 352.006C401.276 357.12 396.676 358.84 393.774 361.673C392.182 363.276 391.065 365.298 390.55 367.511C390.036 369.723 390.145 372.037 390.865 374.189C388.472 371.997 386.911 369.029 386.451 365.797C385.992 362.565 386.662 359.272 388.346 356.487C389.28 355.037 390.484 353.776 391.371 352.295C392.753 349.985 393.135 344.96 389.264 345.098C386.501 345.197 383.631 347.523 381.508 344.217Z" fill="#2F2E41"/>
<path d="M618.198 206.418L632.384 196.144C621.363 195.043 616.835 200.486 614.982 204.793C606.373 201.556 597 205.799 597 205.799L625.383 215.13C623.952 211.666 621.459 208.645 618.198 206.418Z" fill="#3F3D56"/>
<path d="M703.689 158.105C713.905 158.105 722.186 150.806 722.186 141.803C722.186 132.8 713.905 125.501 703.689 125.501C693.473 125.501 685.192 132.8 685.192 141.803C685.192 150.806 693.473 158.105 703.689 158.105Z" stroke="#3F3D56" stroke-width="2" stroke-miterlimit="10"/>
<path d="M747 466H752V598H747V466Z" fill="#9D9CB5"/>
<path d="M732 466H737V598H732V466Z" fill="#9D9CB5"/>
<path d="M762.5 735C757.806 735 754 731.642 754 727.5C754 723.358 757.806 720 762.5 720C767.194 720 771 723.358 771 727.5C771 731.642 767.194 735 762.5 735Z" fill="#535461"/>
<path d="M792 592.4C792 592.4 783.64 586.346 776.315 588.441C768.99 590.536 749.916 592.631 746.513 603.337C743.109 614.042 746.513 731.603 746.513 731.603C746.513 731.603 762.755 735.36 767.17 733.467C771.586 731.575 771.092 713.913 771.092 713.913L772.393 609.657L792 592.4Z" fill="#8C0303"/>
<path opacity="0.1" d="M792 592.4C792 592.4 783.64 586.346 776.315 588.441C768.99 590.536 749.916 592.631 746.513 603.337C743.109 614.042 746.513 731.603 746.513 731.603C746.513 731.603 762.755 735.36 767.17 733.467C771.586 731.575 771.092 713.913 771.092 713.913L772.393 609.657L792 592.4Z" fill="#8C0303"/>
<path d="M717.365 725.956L751.942 733L752.304 727.365L752.528 616.72C752.538 611.55 753.849 606.452 756.358 601.819C758.867 597.186 762.509 593.143 767 590.001C767 590.001 749.099 589.783 735.405 595.439C732.477 596.644 729.541 597.827 726.527 598.842C722.79 600.103 717.719 602.786 717.396 608.084C716.98 614.987 715.531 683.373 715.015 708.268C714.881 714.235 715.672 720.191 717.365 725.956Z" fill="#CB2727"/>
<path d="M746 455H754V466H746V455Z" fill="#535461"/>
<path opacity="0.1" d="M746 455H754V466H746V455Z" fill="black"/>
<path d="M731 458H738V469H731V458Z" fill="#535461"/>
<path d="M731 457.684H739.001C740.49 457.722 741.939 458.17 743.181 458.977C744.422 459.785 745.407 460.919 746.022 462.249C746.137 462.489 746.244 462.737 746.344 463L748.105 461.333L751.764 457.865L754 455.747C754 455.747 739.231 448.427 731 457.684Z" fill="#535461"/>
<path d="M727 740C722.582 740 719 736.866 719 733C719 729.134 722.582 726 727 726C731.418 726 735 729.134 735 733C735 736.866 731.418 740 727 740Z" fill="#535461"/>
<path d="M812.5 730C808.358 730 805 726.642 805 722.5C805 718.358 808.358 715 812.5 715C816.642 715 820 718.358 820 722.5C820 726.642 816.642 730 812.5 730Z" fill="#535461"/>
<path d="M796.948 590C796.948 590 820.196 595.638 821.468 649.435C822.739 703.232 823 708.863 823 708.863C823 708.863 822.494 724.367 788.267 734H767.325L764 610.437C764 610.437 767.831 591.614 796.948 590Z" fill="#CB2727"/>
<path opacity="0.1" d="M799.558 673C799.558 673 805.594 598.322 773.053 598L770 600.673C770 600.673 798.494 591.374 799.558 673Z" fill="black"/>
<path d="M784.5 747C779.806 747 776 743.642 776 739.5C776 735.358 779.806 732 784.5 732C789.194 732 793 735.358 793 739.5C793 743.642 789.194 747 784.5 747Z" fill="#535461"/>
<path opacity="0.1" d="M738.011 457.325C738.007 457.341 738.007 457.357 738.011 457.373H738.135C739.747 457.413 741.316 457.887 742.66 458.742C744.004 459.596 745.07 460.797 745.736 462.205C745.86 462.46 745.976 462.722 746.084 463L747.991 461.236C748.003 461.08 748.003 460.923 747.991 460.767C747.816 459.531 747.144 458.409 746.117 457.643C745.13 456.859 743.948 456.333 742.686 456.114C741.425 455.895 740.126 455.992 738.914 456.395C738.425 456.546 737.92 456.88 738.011 457.325Z" fill="black"/>
</svg>
