<svg width="745" height="748" viewBox="0 0 745 748" fill="none" xmlns="http://www.w3.org/2000/svg">
<g id="undraw_Access_account_re_8spm 1" clip-path="url(#clip0)">
<path id="Path 1" d="M86.629 629.066L80.069 603.194C68.4379 598.265 56.538 593.995 44.426 590.406L43.598 602.43L40.24 589.183C25.219 584.889 15 583 15 583C15 583 28.8 635.489 57.754 675.617L91.488 681.543L65.281 685.322C68.9231 689.704 72.8371 693.853 77 697.744C119.115 736.836 166.024 754.772 181.773 737.804C197.522 720.836 176.148 675.392 134.033 636.304C120.977 624.185 104.576 614.46 88.158 606.804L86.629 629.066Z" fill="#3D9D52"/>
<path id="Vector" d="M744.363 679.87C691.13 717.995 620.002 741.274 541.87 741.274C477.961 741.274 404.506 719.385 344 687.565C348.785 675.161 355.451 665.108 364.722 660.016C364.952 659.885 365.19 659.755 365.428 659.639C369.387 657.605 373.758 656.499 378.208 656.406C432.739 654.87 426.595 716.313 494.95 631.829C537.461 579.287 585.617 561.208 618.535 567.052C619.142 567.16 619.741 567.275 620.34 567.398C639.418 571.361 653.066 583.573 657.006 601.875C667.759 651.798 636.269 691.736 693.872 679.447C710.539 675.979 727.756 676.123 744.363 679.87Z" fill="#75484E"/>
<path id="Vector_2" d="M638.875 729.802C612.086 714.868 595.409 694.479 589.307 669.202C584.776 650.435 586.078 629.316 593.176 606.432C598.439 589.56 606.328 573.624 616.555 559.21C670.808 482.417 675.704 432.378 670.258 403.923C664.288 372.723 644.889 359.765 644.694 359.638L645.531 358.35C645.732 358.48 665.641 371.739 671.756 403.572C675.28 421.924 673.622 442.85 666.827 465.769C658.369 494.292 641.877 526.028 617.809 560.097C607.676 574.379 599.858 590.169 594.643 606.887C583.001 644.419 581.354 695.977 639.623 728.461L638.875 729.802Z" fill="#3F3D56"/>
<path id="Vector_3" d="M591.484 584.534C570.365 572.762 570.953 554.104 575.165 540.525C577.033 534.536 579.833 528.879 583.463 523.762C602.469 496.859 604.187 479.383 602.281 469.459C600.211 458.683 593.57 454.259 593.504 454.215L594.341 452.927C594.636 453.119 601.597 457.757 603.789 469.17C606.644 484.03 600.227 502.695 584.718 524.649C581.181 529.634 578.452 535.145 576.632 540.98C572.588 554.016 572.012 571.922 592.232 583.193L591.484 584.534Z" fill="#3F3D56"/>
<path id="Vector_4" d="M686.504 420.175L685.756 418.833C705.976 407.561 705.4 389.655 701.356 376.62C699.536 370.785 696.807 365.273 693.27 360.289C677.761 338.336 671.344 319.669 674.198 304.809C676.39 293.397 683.352 288.759 683.647 288.567L684.485 289.854C684.418 289.899 677.744 294.381 675.695 305.16C673.81 315.078 675.547 332.539 694.525 359.402C698.155 364.519 700.955 370.176 702.823 376.164C707.035 389.743 707.623 408.401 686.504 420.175Z" fill="#3F3D56"/>
<path id="Vector_5" d="M731.595 343.753C728.258 348.872 723.023 352.455 717.043 353.714C711.064 354.974 704.829 353.806 699.71 350.469C694.591 347.131 691.008 341.897 689.748 335.917C688.489 329.937 689.656 323.702 692.994 318.583L693 318.573C699.954 307.916 734.959 296.428 734.959 296.428C734.959 296.428 738.548 333.095 731.595 343.753Z" fill="#3D9D52"/>
<path id="Vector_6" d="M723.147 272.325C719.809 277.444 714.575 281.027 708.595 282.287C702.615 283.546 696.38 282.379 691.261 279.041C686.143 275.703 682.559 270.469 681.3 264.489C680.04 258.51 681.208 252.274 684.545 247.156L684.552 247.146C691.505 236.488 726.511 225 726.511 225C726.511 225 730.1 261.667 723.147 272.325Z" fill="#248439"/>
<path id="Vector_7" d="M722.054 488.541C720.579 488.195 685.795 480.108 674.197 485.63C669.316 487.954 665.371 491.87 663.012 496.734C660.652 501.599 660.018 507.121 661.214 512.393C662.41 517.666 665.364 522.374 669.592 525.744C673.819 529.114 679.067 530.945 684.474 530.936C686.205 530.938 687.93 530.747 689.619 530.368C691.364 529.978 693.059 529.393 694.673 528.625C706.271 523.095 721.908 490.991 722.568 489.624L722.991 488.763L722.054 488.541ZM694.013 527.234C691.372 528.492 688.51 529.217 685.589 529.369C682.668 529.52 679.746 529.095 676.99 528.117C674.233 527.14 671.696 525.628 669.524 523.67C667.351 521.712 665.586 519.345 664.328 516.705C663.07 514.064 662.345 511.202 662.194 508.281C662.042 505.36 662.467 502.438 663.445 499.681C664.423 496.925 665.934 494.388 667.892 492.216C669.85 490.043 672.217 488.278 674.858 487.02C677.561 485.73 681.693 485.246 686.409 485.246C699.312 485.246 716.562 488.894 720.756 489.823C718.137 495.077 704.105 522.426 694.013 527.234V527.234Z" fill="#3F3D56"/>
<path id="Vector_8" d="M617.376 358.06C611.444 358.07 605.724 355.856 601.345 351.855C591.851 343.199 586.216 307.934 585.981 306.437L585.832 305.49L586.789 305.551C588.301 305.647 623.936 308.012 633.429 316.669C636.98 319.903 639.469 324.137 640.569 328.813C641.668 333.489 641.327 338.388 639.59 342.867C637.853 347.345 634.802 351.193 630.837 353.905C626.872 356.617 622.18 358.065 617.376 358.06H617.376ZM587.657 307.154C588.64 312.937 594.121 343.19 602.38 350.721C606.745 354.698 612.512 356.779 618.411 356.506C624.311 356.233 629.86 353.627 633.839 349.263C637.818 344.899 639.901 339.134 639.63 333.234C639.359 327.335 636.756 321.784 632.394 317.803V317.803C624.135 310.274 593.506 307.6 587.657 307.154V307.154Z" fill="#3F3D56"/>
<path id="Vector_9" d="M585.293 413.241C587.529 415.28 589.341 417.739 590.627 420.478C591.912 423.217 592.646 426.183 592.785 429.205C592.925 432.228 592.467 435.248 591.439 438.094C590.412 440.94 588.833 443.555 586.794 445.791C584.756 448.027 582.297 449.84 579.557 451.125C576.818 452.411 573.853 453.144 570.83 453.283C567.808 453.423 564.787 452.966 561.941 451.938C559.095 450.91 556.48 449.331 554.244 447.293C544.841 438.719 539.122 402.323 539.122 402.323C539.122 402.323 575.89 404.667 585.293 413.241Z" fill="#0ABA31"/>
<path id="Vector_10" d="M655.91 414.087C655.274 411.157 653.657 408.531 651.326 406.645C648.995 404.758 646.09 403.723 643.092 403.711C642.147 403.714 641.204 403.817 640.281 404.018C633.415 405.508 621.21 420.462 620.696 421.092L620.089 421.837L620.949 422.267C621.625 422.605 636.325 429.886 644.021 429.886C644.635 429.893 645.248 429.834 645.849 429.709C649.254 428.97 652.226 426.909 654.113 423.98C655.999 421.051 656.646 417.493 655.91 414.087H655.91ZM652.823 423.15C652.002 424.436 650.934 425.546 649.68 426.415C648.426 427.284 647.011 427.895 645.519 428.211C640.004 429.409 626.133 423.042 622.508 421.314C625.089 418.242 635.089 406.714 640.611 405.516C642.855 405.03 645.193 405.221 647.329 406.064C649.465 406.907 651.302 408.364 652.61 410.252C653.917 412.14 654.635 414.373 654.673 416.669C654.711 418.964 654.067 421.22 652.823 423.15V423.15Z" fill="#3F3D56"/>
<path id="Path 2" d="M196.46 601.245L204.218 575.707C196.81 565.475 188.83 555.669 180.318 546.336L173.394 556.201L177.366 543.125C166.725 531.689 158.954 524.79 158.954 524.79C158.954 524.79 143.639 576.857 147.679 626.174L173.494 648.684L149.102 638.372C149.955 644.007 151.162 649.583 152.716 655.066C168.562 710.3 199.447 749.901 221.699 743.517C243.951 737.133 249.145 687.182 233.299 631.948C228.387 614.825 219.373 598.022 209.276 582.983L196.46 601.245Z" fill="#81D293"/>
<path id="Path 22" d="M512.445 276.908H509.117V184.491C509.117 177.466 507.752 170.511 505.101 164.021C502.449 157.531 498.562 151.634 493.663 146.667C488.763 141.7 482.947 137.76 476.545 135.072C470.143 132.384 463.282 131 456.353 131H263.209C249.215 131 235.794 136.636 225.899 146.667C216.004 156.699 210.445 170.304 210.445 184.491V691.509C210.445 698.534 211.81 705.489 214.461 711.979C217.113 718.469 220.999 724.366 225.899 729.333C230.799 734.3 236.615 738.24 243.017 740.928C249.418 743.616 256.28 745 263.209 745H456.353C470.347 745 483.767 739.364 493.662 729.333C503.557 719.301 509.116 705.696 509.116 691.509V342.693H512.444L512.445 276.908Z" fill="#E6E6E6"/>
<path id="Path 23" d="M458.169 145H433.04C434.196 147.881 434.637 151.007 434.325 154.102C434.012 157.197 432.956 160.167 431.249 162.749C429.542 165.331 427.237 167.447 424.536 168.91C421.835 170.373 418.822 171.138 415.762 171.138H305.469C302.409 171.138 299.396 170.372 296.696 168.909C293.995 167.446 291.69 165.331 289.983 162.748C288.276 160.166 287.22 157.197 286.908 154.101C286.596 151.006 287.037 147.881 288.192 145H264.721C254.304 145 244.314 149.207 236.949 156.697C229.583 164.186 225.445 174.343 225.445 184.935V691.065C225.445 701.657 229.583 711.814 236.949 719.303C244.314 726.793 254.304 731 264.721 731H458.169C468.585 731 478.575 726.793 485.941 719.303C493.307 711.814 497.445 701.657 497.445 691.065V691.065V184.934C497.445 174.343 493.306 164.185 485.941 156.696C478.575 149.207 468.585 145 458.169 145V145Z" fill="white"/>
<path id="Path 6" d="M336.775 346.001C336.774 342.49 337.668 339.04 339.365 336C341.063 332.959 343.505 330.435 346.445 328.681C343.506 326.925 340.172 326 336.779 326C333.385 326 330.051 326.923 327.112 328.679C324.173 330.434 321.732 332.959 320.035 335.999C318.338 339.04 317.445 342.489 317.445 346C317.445 349.511 318.338 352.96 320.035 356.001C321.732 359.041 324.173 361.566 327.112 363.321C330.051 365.077 333.385 366 336.779 366C340.172 366 343.506 365.075 346.445 363.319C343.505 361.565 341.063 359.042 339.366 356.001C337.668 352.961 336.775 349.512 336.775 346.001V346.001Z" fill="#CCCCCC"/>
<path id="Path 7" d="M361.442 346.001C361.441 342.49 362.365 339.04 364.121 336C365.877 332.959 368.403 330.435 371.445 328.681C368.405 326.925 364.956 326 361.445 326C357.935 326 354.486 326.923 351.445 328.679C348.405 330.434 345.88 332.959 344.124 335.999C342.369 339.04 341.445 342.489 341.445 346C341.445 349.511 342.369 352.96 344.124 356.001C345.88 359.041 348.405 361.566 351.445 363.321C354.486 365.077 357.935 366 361.445 366C364.956 366 368.405 365.075 371.445 363.319C368.403 361.565 365.878 359.042 364.121 356.001C362.365 352.961 361.441 349.512 361.442 346.001V346.001Z" fill="#CCCCCC"/>
<path id="Ellipse 1" d="M386.445 366C397.49 366 406.445 357.046 406.445 346C406.445 334.954 397.49 326 386.445 326C375.399 326 366.445 334.954 366.445 346C366.445 357.046 375.399 366 386.445 366Z" fill="#6C63FF"/>
<path id="Path 8" d="M419.29 410H303.599C302.498 409.999 301.442 409.554 300.663 408.762C299.884 407.971 299.446 406.898 299.445 405.779V288.221C299.446 287.102 299.884 286.029 300.663 285.238C301.442 284.446 302.498 284.001 303.599 284H419.29C420.392 284.001 421.448 284.446 422.227 285.238C423.005 286.029 423.443 287.102 423.445 288.221V405.779C423.443 406.898 423.005 407.971 422.227 408.762C421.448 409.554 420.392 409.999 419.29 410V410ZM303.599 285.69C302.938 285.69 302.305 285.957 301.837 286.432C301.37 286.907 301.107 287.551 301.107 288.222V405.779C301.107 406.451 301.37 407.095 301.837 407.57C302.305 408.044 302.938 408.311 303.599 408.312H419.29C419.951 408.311 420.585 408.044 421.052 407.57C421.519 407.095 421.782 406.451 421.783 405.779V288.222C421.782 287.551 421.519 286.907 421.052 286.432C420.585 285.957 419.951 285.69 419.29 285.69H303.599Z" fill="#CCCCCC"/>
<path id="Rectangle 1" d="M444.445 500H267.445V501H444.445V500Z" fill="#CCCCCC"/>
<path id="Ellipse 2" d="M272.945 489C275.982 489 278.445 486.314 278.445 483C278.445 479.686 275.982 477 272.945 477C269.907 477 267.445 479.686 267.445 483C267.445 486.314 269.907 489 272.945 489Z" fill="#6C63FF"/>
<path id="Rectangle 2" d="M444.445 557H267.445V558H444.445V557Z" fill="#CCCCCC"/>
<path id="Ellipse 3" d="M272.945 546C275.982 546 278.445 543.314 278.445 540C278.445 536.686 275.982 534 272.945 534C269.907 534 267.445 536.686 267.445 540C267.445 543.314 269.907 546 272.945 546Z" fill="#6C63FF"/>
<path id="Vector_11" d="M441.813 621H386.076C385.113 620.999 384.19 620.613 383.51 619.927C382.829 619.241 382.446 618.311 382.445 617.341V597.659C382.446 596.689 382.829 595.759 383.51 595.073C384.19 594.387 385.113 594.001 386.076 594H441.813C442.776 594.001 443.699 594.387 444.38 595.073C445.061 595.759 445.444 596.689 445.445 597.659V617.341C445.444 618.311 445.061 619.241 444.38 619.927C443.699 620.613 442.776 620.999 441.813 621V621Z" fill="#6C63FF"/>
<path id="Ellipse 7" d="M291.945 489C294.982 489 297.445 486.314 297.445 483C297.445 479.686 294.982 477 291.945 477C288.907 477 286.445 479.686 286.445 483C286.445 486.314 288.907 489 291.945 489Z" fill="#6C63FF"/>
<path id="Ellipse 8" d="M309.945 489C312.982 489 315.445 486.314 315.445 483C315.445 479.686 312.982 477 309.945 477C306.907 477 304.445 479.686 304.445 483C304.445 486.314 306.907 489 309.945 489Z" fill="#6C63FF"/>
<path id="Ellipse 9" d="M291.945 546C294.982 546 297.445 543.314 297.445 540C297.445 536.686 294.982 534 291.945 534C288.907 534 286.445 536.686 286.445 540C286.445 543.314 288.907 546 291.945 546Z" fill="#6C63FF"/>
<path id="Ellipse 10" d="M309.945 546C312.982 546 315.445 543.314 315.445 540C315.445 536.686 312.982 534 309.945 534C306.907 534 304.445 536.686 304.445 540C304.445 543.314 306.907 546 309.945 546Z" fill="#6C63FF"/>
<path id="Path 88" d="M742.066 747.077H24.08C22.543 747.077 21.298 746.531 21.298 745.859C21.298 745.187 22.543 744.64 24.08 744.64H742.066C743.602 744.64 744.848 745.186 744.848 745.859C744.848 746.532 743.602 747.077 742.066 747.077Z" fill="#3F3D56"/>
<path id="Vector_12" d="M58.562 479.563L98.7031 439.422C100.01 438.115 101.635 437.171 103.418 436.684C105.201 436.197 107.08 436.183 108.87 436.644C110.66 437.105 112.299 438.025 113.625 439.313C114.951 440.601 115.918 442.212 116.431 443.988V443.988C116.959 445.814 116.987 447.748 116.513 449.589C116.039 451.43 115.08 453.11 113.735 454.454L88.1082 480.081L123.875 508.591L123.856 508.618C124.036 508.609 124.212 508.591 124.393 508.591C126.544 508.59 128.647 509.227 130.436 510.421C132.226 511.614 133.621 513.311 134.447 515.298C135.273 517.284 135.491 519.47 135.076 521.58C134.66 523.691 133.628 525.631 132.111 527.155C130.593 528.68 128.658 529.721 126.55 530.146C124.442 530.572 122.254 530.364 120.264 529.547C118.274 528.731 116.571 527.344 115.369 525.56C114.167 523.776 113.52 521.676 113.51 519.525L58.562 479.563Z" fill="#A0616A"/>
<path id="Vector_13" d="M177.107 727.491L189.014 723.046L177.535 675.003L159.961 681.563L177.107 727.491Z" fill="#A0616A"/>
<path id="Vector_14" d="M216.106 725.529L178.684 739.5L173.286 725.042L196.762 716.277C200.46 714.897 204.556 715.042 208.148 716.681C211.74 718.32 214.534 721.319 215.915 725.017L216.106 725.529V725.529Z" fill="#2F2E41"/>
<path id="Vector_15" d="M69.985 723.671L82.695 723.67L88.742 674.646L69.983 674.647L69.985 723.671Z" fill="#A0616A"/>
<path id="Vector_16" d="M107.208 735.471L67.2625 735.473L67.2617 720.04L92.3201 720.039C96.2683 720.038 100.055 721.607 102.847 724.398C105.639 727.19 107.207 730.977 107.208 734.925L107.208 735.471V735.471Z" fill="#2F2E41"/>
<path id="Vector_17" d="M102.104 494.077C102.104 494.077 133.205 488.893 143.572 501.334L187.632 705.048L162.751 708.158C162.751 708.158 154.458 602.413 112.989 574.422C112.989 574.422 82.9247 667.726 88.1083 710.231L66.3373 708.158C66.3373 708.158 59.5987 529.325 102.104 494.077Z" fill="#2F2E41"/>
<path id="Vector_18" d="M166.727 567.606L170.295 562.924L169.71 562.478L172.115 559.321C172.678 558.583 173.089 557.741 173.327 556.844C173.564 555.946 173.622 555.011 173.498 554.091C173.374 553.171 173.07 552.285 172.603 551.483C172.136 550.68 171.516 549.978 170.777 549.415L170.777 549.415L162.123 542.82C161.385 542.257 160.543 541.846 159.646 541.608C158.748 541.371 157.813 541.313 156.893 541.437C155.973 541.561 155.087 541.865 154.284 542.332C153.482 542.799 152.78 543.419 152.217 544.157L152.217 544.158L131.796 570.955C131.233 571.693 130.822 572.535 130.585 573.432C130.347 574.33 130.289 575.265 130.413 576.185C130.538 577.105 130.842 577.991 131.308 578.793C131.775 579.596 132.396 580.298 133.134 580.861L133.134 580.861L141.788 587.456C143.279 588.592 145.16 589.09 147.018 588.839C148.876 588.588 150.558 587.609 151.694 586.118L151.694 586.118L161.236 573.598L161.821 574.044L165.389 569.362L164.804 568.916L166.142 567.16L166.727 567.606Z" fill="#E6E6E6"/>
<path id="Vector_19" d="M159.76 558.575C161.792 558.575 163.439 556.928 163.439 554.896C163.439 552.864 161.792 551.217 159.76 551.217C157.729 551.217 156.081 552.864 156.081 554.896C156.081 556.928 157.729 558.575 159.76 558.575Z" fill="white"/>
<path id="Vector_20" d="M109.633 413.29C123.197 413.29 134.194 402.293 134.194 388.729C134.194 375.164 123.197 364.167 109.633 364.167C96.0681 364.167 85.0718 375.164 85.0718 388.729C85.0718 402.293 96.0681 413.29 109.633 413.29Z" fill="#A0616A"/>
<path id="Vector_21" d="M85.5164 434.984C85.5164 434.984 108.324 408.03 126.985 429.801C138.992 443.809 145.342 461.792 144.794 480.233L144.091 503.926L101.067 497.187L85.5164 434.984Z" fill="#CCCCCC"/>
<path id="Vector_22" d="M118.112 428.064C116.491 428.085 114.894 428.459 113.432 429.16C111.97 429.862 110.679 430.873 109.647 432.124C108.616 433.375 107.87 434.836 107.46 436.404C107.051 437.973 106.988 439.612 107.277 441.208L130.816 571.48L130.685 571.659C129.746 572.939 129.104 574.412 128.807 575.971C128.509 577.53 128.563 579.136 128.965 580.671C129.367 582.207 130.106 583.633 131.129 584.847C132.152 586.061 133.433 587.031 134.878 587.687C137.229 588.724 139.872 588.891 142.335 588.159C144.798 587.426 146.92 585.841 148.321 583.688C149.713 581.516 150.268 578.913 149.881 576.363C149.494 573.813 148.192 571.491 146.218 569.831L146.065 569.701L129.33 437.818C128.99 435.123 127.677 432.645 125.639 430.848C123.601 429.052 120.978 428.062 118.261 428.063C118.212 428.063 118.161 428.063 118.112 428.064Z" fill="#A0616A"/>
<path id="Vector_23" d="M113.614 392.978L124.166 380.546C126.886 377.342 129.73 373.853 130.115 369.668C130.537 365.081 127.746 360.622 123.932 358.039C120.117 355.456 115.433 354.485 110.841 354.128C102.322 353.467 93.3589 354.874 86.3564 359.769C79.3539 364.665 74.7727 373.502 76.4801 381.873C77.8245 388.465 82.7783 394.78 80.8529 401.225C78.7461 408.278 70.1062 410.442 63.0521 412.546C51.2118 416.076 39.9057 423.026 33.7006 433.71C27.4954 444.394 27.5225 459.127 35.7942 468.305C41.1503 474.248 49.2286 477.253 57.2163 477.706C65.204 478.158 73.1545 476.277 80.7299 473.703C87.7065 471.334 94.6078 468.286 100.1 463.374C105.593 458.463 109.55 451.435 109.378 444.069C109.215 437.049 105.455 430.654 103.91 423.804C102.691 418.069 103.011 412.113 104.837 406.54C106.662 400.968 109.929 395.977 114.305 392.074" fill="#2F2E41"/>
<path id="Vector_24" d="M96.8458 352.384L103.493 351.08C104.043 350.972 104.608 350.973 105.157 351.084C105.705 351.195 106.227 351.412 106.692 351.725C107.157 352.037 107.555 352.438 107.865 352.904C108.175 353.37 108.39 353.893 108.498 354.442L117.689 385.286L102.675 388.232L93.4831 357.389C93.2654 356.279 93.4974 355.129 94.128 354.19C94.7586 353.251 95.7362 352.602 96.8458 352.384Z" fill="#6C63FF"/>
<path id="Vector_25" d="M111.472 402.787C118.149 402.787 123.562 397.374 123.562 390.697C123.562 384.02 118.149 378.607 111.472 378.607C104.795 378.607 99.3822 384.02 99.3822 390.697C99.3822 397.374 104.795 402.787 111.472 402.787Z" fill="white"/>
<path id="Vector_26" d="M111.472 397.413C115.182 397.413 118.189 394.406 118.189 390.697C118.189 386.987 115.182 383.98 111.472 383.98C107.763 383.98 104.755 386.987 104.755 390.697C104.755 394.406 107.763 397.413 111.472 397.413Z" fill="#6C63FF"/>
</g>
<defs>
<clipPath id="clip0">
<rect width="744.848" height="747.077" fill="white"/>
</clipPath>
</defs>
</svg>
