<svg xmlns="http://www.w3.org/2000/svg" width="1920" height="460.946" viewBox="0 0 1920 460.946"><defs><style>.a{fill:#100e0e;}</style></defs><path class="a" d="M2651.188-1208.509a34.141,34.141,0,0,0-7.982-2.866c-6.748-1.575-13.3-3.921-20.163-5.024-5.9-.948-12.4.571-18.234-.539-6.114-1.162-12.987-2.031-19-3.425-7.079-1.639-13.092-4.438-20.289-5.881-5.594-1.122-12.1-2.113-17.339-5.347-3.674-2.269-9.106-6.212-10.977-10.212-1.947-4.163.6-9-6.359-6.232a8.776,8.776,0,0,1-7.21-.13,6.374,6.374,0,0,0-3.011-.77c-1.885.111-1.89.119-1.272-1.671.142-.411.445-.84.078-1.225-.349-.366-.837-.17-1.256-.079-.567.122-1.065.542-1.8.4.124-.5.219-.964.357-1.419.226-.749.53-1.588-.22-2.123a2.19,2.19,0,0,0-2.2.112,9.4,9.4,0,0,0-3.107,2.655c-.476.534-.95,1.1-1.8.937-1.438-.277-3.9-2.688-4.1-4.112a2.383,2.383,0,0,0-1.7-2.185,3.167,3.167,0,0,1-2.42-2.267,3.568,3.568,0,0,0-2.958-2.925c-.316-.088-.613-.251-.931-.33-1.1-.275-.96-1.511-1.618-2.169-.216-.215.828-.683,1.281-1.052.526-.428,1.25-.672,1.465-1.611a2.355,2.355,0,0,1-2.714-1.223c-.646-1.024-2.36-.95-3.649-1.228-.723-.156-1.674.024-2.092-.715-.6-1.057-1.281-.932-2.2-.546-.787.331-1.732.791-1.963-.695-.032-.211-.347-.413-.572-.554-1.951-1.215-3.529-.437-3.735,1.829-.155,1.717-.776,2.3-1.995,1.512a15.152,15.152,0,0,0-8.042-2.47c-.486-.012-1.2-.051-1.359-.7-.625-2.475-2.044-4.6-3.041-6.9-1.366-3.161-3.269-6.051-4.535-9.289a15.442,15.442,0,0,0-4.893-6.735,1.061,1.061,0,0,1-.466-.975c.13-2.709-1.038-5.005-2.3-7.279a12.243,12.243,0,0,1-1.419-3.146c-.642-2.792-1.356-5.512-3.54-7.63-1.083-1.051-.881-2.264.335-3.267a7.438,7.438,0,0,0,2.533-4.686,42.854,42.854,0,0,0,.341-9.216,10.344,10.344,0,0,0-4.861-8.695c-.228-.149-.626-.336-.623-.5.035-1.8-1.577-2.818-2.008-4.388-.476-1.737-1.482-1.965-2.951-1.036-.829.524-1.378.463-1.8-.7a3.489,3.489,0,0,0-2.646-2.4,24.673,24.673,0,0,1-4.361-.659,1.681,1.681,0,0,0-2.215,1.745c.154,1.706-.714,1.226-1.541.865a5.128,5.128,0,0,0-3.333-.654,9.028,9.028,0,0,1-4.067-.253,10.031,10.031,0,0,0-2.115-.248c-.967.017-1.842.242-2.628-.763-.441-.563-1.464-.456-2.321-.449-1.556.014-2.719,1.447-4.371.99a44.015,44.015,0,0,1-7.742-2.4c-.413-.2-1.275-.625-1.034-.847.929-.857-.539-2.455,1.039-3,.331-.113.849-.161.752-.7-.079-.436-.528-.533-.885-.64a9.652,9.652,0,0,0-2.94-.285c-.662.011-1.391-.137-1.7.658-.268.7.323,1.1.706,1.541.249.289.62.5.787.825.308.6.237,1.371-.452,1.468a13.4,13.4,0,0,1-4.718.21,28.763,28.763,0,0,0-6.213-.472c-1.815-.025-3.632.014-5.445-.062a8.87,8.87,0,0,1-5.6-2.077c-.906-.774-1.691-1.85-2.915-2.1-3.412-.7-7.449.087-9.149,4.019a15.262,15.262,0,0,0-1.317,4.726c-.1,1.063.062,2.27-.84,3.1-2.647,2.443-3.949,5.635-5.05,8.942a11.4,11.4,0,0,1-1.98,3.953,5.846,5.846,0,0,0-1.474,3.42,8.728,8.728,0,0,1-1.481,3.8,14.134,14.134,0,0,0-2.26,7.142c-.024,1.981,0,3.964-.07,5.944a10.389,10.389,0,0,0,1.448,6.478,5.217,5.217,0,0,1,.536,1.883c.2,1.015-.089,1.5-1.27,1.755a4.726,4.726,0,0,1-4.279-.719,1.609,1.609,0,0,0-1.869-.2c-1.759,1.579-4.049,2.016-6.01,3.093-1.326.728-2.246.923-3.4.036a2.174,2.174,0,0,0-2.835-.083,4.605,4.605,0,0,1-4.571.39c-.572-.268-1.253-.078-1.759-.282a21.78,21.78,0,0,0-5.264-1.23c-1.335-.189-1.965-.211-2.633.832-.356.555-.733,1.1-1.1,1.643-.578.859-1.2,1.1-1.957.181-.941-1.137-1.81-.772-2.568.208a16.3,16.3,0,0,0-1.369,2.051,2.263,2.263,0,0,1-1.791,1.289,5.724,5.724,0,0,0-4.066,2.559c-.779,1.078-1.427,1.551-2.624.479-.729-.652-1.536-.853-2.259.388a1.89,1.89,0,0,1-2.909.8.844.844,0,0,0-.6-.074c-1.487.336-4.09,3.218-4.287,4.765-.077.6-.2,1.216-.941,1.022-1.893-.494-2.946.771-4.084,1.842-.641.6-1.2,1.5-2.129,1.407-1.9-.189-3.381.674-4.892,1.572-.908.54-2.59.442-2.836.955-.8,1.683-1.884,1.069-3.025.873a2.345,2.345,0,0,0-1.6.226c-1.034.591-1.469.172-1.677-.888-.135-.683-.236-1.488-.914-1.877-1.86-1.065-3.855-.686-5.792-.321-1.26.238-1.319,1.47-1.609,2.46-.122.416-.173.955-.459,1.205-1.753,1.527-1.451,3.969-2.632,5.745-.308.464-.137,1.4-.864,1.4-.62-.005-.807-.8-1.054-1.355-.257-.572-.407-1.01-1.283-1.2-2.022-.448-4.351,1.075-6.132-.959a19.689,19.689,0,0,0-3.75-.03c-1.134.617-.378.6-1.118,1.54-.9,1.145-.332,1.567-1.95,2.469-1.479.825-3.471.946-5.079,1.445-.168.051-.328.106-.481.162-2.763,1.016-3.405,2.765-5.613,4.81-2.5,2.313-5.809,3.723-8.483,6.079a74.041,74.041,0,0,1-11.987,8.9c-3.631,2.08-6.114,6.383-10.309,7.019-4.254.645-7.363-.259-11.422,1.54-6.046,2.678-11.513,6.367-17.8,8.47a100.6,100.6,0,0,1-11.684,2.72c-4.923,1.017-9.965,1.984-14.934,3.133-.088-1.838.628-3.454,3.106-4.595-2.162.2-3.52-1.329-5.262-1.847-.915-.271-1.053-1.205-.015-1.443,2.415-.553,4.559-2.117,7.186-1.872,1.433.134,2.878.154,4.318.225a4.47,4.47,0,0,0-1.99-.714,19.875,19.875,0,0,0-7.838.606c-.614.157-1.564.424-1.54-.461.044-1.637-.279-3.6,1.534-4.582,1.133-.615,1.054-1.059.106-1.562-1.288-.684-1.339-1.618-.96-2.867.425-1.4,1.482-1.3,2.562-1.363,2.564-.157,5.078.419,7.626.547a20.261,20.261,0,0,0-7.717-1.476c-.761,0-1.885.341-1.765-1.135.033-.413.17-.963-.36-1.088-.67-.159-.825.47-.924.934-.24,1.123-1.074,1.446-2.029,1.6a42,42,0,0,0-8.5,1.973c-.684.262-1.661.032-1.48-.612.469-1.667-.419-3.436.807-5.1.859-1.167,1.932-2.821,1.154-4.35-.846-1.66-.511-3.136-.185-4.72.274-1.328.57-2.651.81-3.984.112-.622.269-1.427-.594-1.581-.7-.123-.891.588-1.044,1.141-.114.41-.137.846-.237,1.261-.679,2.805-.773,5.825-3.208,7.958a1.917,1.917,0,0,0-.345,2.22c.491,1.019.215,1.563-.756,2.005-1.964.9-3,2.8-4.452,4.252a1.937,1.937,0,0,0-.012,2.75c1.477,1.688.944,2.65-.883,3.51-.658.311-2.1.609-1.572,1.547.48.85,1.257-.393,1.919-.662.565-.231,1.106-.91,1.728-.345a3.191,3.191,0,0,1,.67,2.207c.087.913-.734.906-1.331,1.058-1.415.36-2.924.36-4.254,1.22-.736-2.6-.453-5.216-.925-7.743a9.032,9.032,0,0,0-4.344-6.554c-.667-.391-1.387-1-2.165-.654-.9.406-.517,1.391-.521,2.12-.031,5.5-.023,11-.011,16.495,0,1.576-.271,3.2,1.038,4.749-1.574-.045-3.224.7-3.458-1.322-.4-3.474,1.245-7.066-.567-10.477,1.3-1.967.463-4.074.489-6.146.029-2.279.464-4.6,0-6.827-.625-3.017-.79-2.982,1.462-4.819a6.873,6.873,0,0,0-.076,1.116c.106,1.088-.224,2.92.868,2.96,1.256.046.979-1.81,1.072-2.835.247-2.7-.047-5.478.485-8.1.46-2.268.784-3.89-2.1-4.3-.3-.042-.549-.426-.821-.651,1,.245,2.163.911,2.692-.612,1.1-3.17-2-7.481-5.341-7.491-1.352,0-2.7,0-4.057,0-4.053,0-5.163.767-6.066,4.637-.265,1.134-1.113,2.672.3,3.535,1.511.923,2.2-.7,3.114-1.495a16.5,16.5,0,0,1,1.6-1.408c1.79-1.193,3.565-1.343,5.223.278a5.37,5.37,0,0,0-6.856,1.777,4.548,4.548,0,0,1-2.822,1.816,1.575,1.575,0,0,0-1.406,2.316c.778,2.437.568,4.943.694,7.431.076,1.491.306,2.977.525,4.456.057.382.223.891.794.8.411-.069.518-.474.55-.826.1-1.141.171-2.285.265-3.593,2.858,3.149,2.938,3.842.217,5.268-2.2,1.152-4.474,2.111-6.6,3.454-1.873,1.185-2.642.524-3.325-1.57-.63-1.93-.037-4.236-1.827-5.828-.445-.4-.219-1.082.008-1.626a2.953,2.953,0,0,0-.026-1.846c-.838-4.106-1.4-8.238-.5-12.424.8-3.728.784-3.72,4.345-3.182.661.1,1.562.539,1.894-.339s-.632-1.166-1.181-1.545q-7.314-5.049-14.665-10.046a12.46,12.46,0,0,1-3.344-3.252c-3.789-5.452-7.642-10.859-11.476-16.28-2.015-2.848-4.767-5.347-4.345-9.337.024-.228-.208-.484-.369-.827-1.088,1.792-.273,3.88-1.184,5.459s-2.319,2.874-3.393,4.376c-3.405,4.762-6.991,9.418-10.053,14.394-2.368,3.848-5.9,6.1-9.42,8.505-.584.4-1.19.757-1.435-.284-.363-1.54-1.545-1.444-2.7-1.444q-31.6,0-63.195,0c-2.335,0-3.628,1.523-3.391,4.273.176,2.036,1.946,1.047,3.042,1.3a5.838,5.838,0,0,0,1.282.015c10.776-.048,21.554-.215,32.329-.108,8.21.081,16.418.127,24.627.022,2.722-.034,5.444-.005,8.166-.005q0,.351.005.7a5.462,5.462,0,0,1-2.607.241c-21.136.011-42.273-.021-63.409.038-3.322.009-6.557.139-9.123-2.5a3.433,3.433,0,0,0-1.5-.794,6.613,6.613,0,0,1-5.056-4.746c-.457-1.557-.3-3.612.857-3.84,1.5-.295,2.04-.9,1.309-2.34-.173-.339-.271-.737.017-1,1.639-1.482,1.228-2.52-.643-3.314a.689.689,0,0,1-.353-.494c-.131-2.932-1.317-5.672-1.686-8.511-.421-3.246-1.013-6.517-1.737-9.63-.549-2.366-.994-4.878-1.639-7.265a48.989,48.989,0,0,1-2.049-13.515c.007-.455.064-1.157-.676-1.059-.493.065-.441.649-.437,1.073.057,5.861-2.005,11.386-2.714,17.123-.328,2.656-1.639,5.061-1.663,7.843-.009.994.072,2.589-.475,3.222-1.1,1.267-.582,2.761-1.093,4.091-1.034,2.694-.312,6-2.957,8.224-.613.517-.268,1.367.425,1.821.551.361.881.747.507,1.395-.82,1.419-.315,2.127,1.206,2.336a1.037,1.037,0,0,1,.8.628c.838,1.659-.853,6.266-2.6,6.9-6.2,2.233-10.191,6.232-11.251,13.018-.615,3.935-1.806,7.78-2.757,11.661-.686,2.8-.679,2.835,2.3,2.838q10.176.01,20.351,0h8.586l0,.359H1952.3q-14.674,0-29.348,0c-3.177.005-3.558.624-2.078,3.3a1.621,1.621,0,0,1-.124,1.618c-.253.534-.787.56-1.3.526a1.067,1.067,0,0,1-1.054-1.124c-.091-1.137-.229-2.274-.246-3.412-.073-4.622-.282-9.251-.1-13.864.172-4.507-.952-9.1,1-13.53a2.92,2.92,0,0,0-2.347-3.845c-.512-.08-.81-.1-.762-.693.165-2.047-.347-4.151.528-6.139a2.19,2.19,0,0,0,.267-1.64c-.472-1.445-1.065-2.594-2.965-2.363-1.546.187-3.595-.5-4.584.274-1.639,1.281-2.36-1.127-3.749-.314-.743.434-1.954.047-2.952.072-2.046.052-3.342,1.615-2.672,3.506.648,1.833.423,3.664.484,5.505a1.527,1.527,0,0,1-1.177,1.75,2.855,2.855,0,0,0-1.544,4.029c1.148,2.518.9,5.023.928,7.559.052,4.3.012,4.313-4.152,4.181-.522-.017-1.286.332-1.505-.381-.175-.568.446-.993.785-1.438,1.051-1.382,2.585-2.364,3.7-4.372-2.668,1.286-4.4,3.057-6.5,4.554.144-2.322,2.071-3.771,2.137-5.914-2.308,2.774-4.47,5.614-5.3,9.52-2.455-3.345-5.637-4.911-8.952-6.29,1.2,1.635,3.2,2.4,4.626,4.356-2.666-.327-4.827-1.307-7.17-.976,2.072,1.259,4.439,1.834,6.539,3.166-4.89,2.681-10.305,4.647-11.368,11.146l-.8-3.539c-.987,2.69,0,4.882.129,7.094-3.976-.334-4.629-.277-6.724.571.882.586,2.106-.185,3.012.728-1.078,1.061-2.71,1.041-3.776,2.194,1.045.325,1.812-.2,2.631-.316.616-.089,1.334-.555,1.808.026.406.5-.2,1.048-.372,1.57-.51,1.547-1.344,3.01-1.408,5.226l2.208-3.434c.02,2.116-.666,3.824.026,5.667.95-1.1.43-2.438,1.215-3.323.612,1.4.242,3.068,1.267,4.5.628-1.321-.042-2.577.519-3.914.734,1.433,1.4,2.721,2.056,4.009a24.211,24.211,0,0,0-.768-5.041,2.749,2.749,0,0,1,1.752-3.311c1.391-.5,1.579,1.123,2,1.974,2.016,4.032,1.88,4.611-1.262,7.744-3.344,3.335-4.288,7.607-4.738,12.092-.26,2.6-.08,2.9,2.49,2.905,7.426.013,14.853,0,22.279.017a2.921,2.921,0,0,1,2.11.362c-8.814,0-17.375,0-25.937,0-.713,0-1.43,0-2.14.055-.786.064-1.391.426-1.423,1.3a1.433,1.433,0,0,0,1.239,1.523,10.323,10.323,0,0,0,2.125.159q11.676.016,23.35.008h2.156c-9.36.369-18.7.4-28.049.343-1.785-.01-3.237.192-3.584,3.041-.526-.872-.747-1.16-.887-1.483-.562-1.3-2.391-2.653.6-3.579,1.376-.427,1.218-2.221.9-3.416-.326-1.227-1.548-1.39-2.665-1.088-.891.242-1.768.826-2.685.48-4.563-1.722-9.195-.338-13.786-.323a5.774,5.774,0,0,0-5.87,5.191,17.005,17.005,0,0,0,.592,6.282c-2.5-.014-5-.106-7.486.028-2.329.126-3.463-.57-3.876-3.046-.838-5.016-2.5-10-5.95-13.659-3.942-4.179-4.679-8.789-4.227-14.022.049-.576.017-1.159.017-1.739,0-4.073,0-4.151-4.194-4.147-2.048,0-3.049-.546-3.5-2.789-.885-4.406-3.008-8.367-7.271-10.257-2.559-1.134-4.948-1.935-5.141-5.285-.186,4.226-3.569,5.255-6.357,5.411-3.161.177-6.488-1.276-6.619-5.886a7.3,7.3,0,0,0-.937,2.758c-.258,2.521-2.543,2.319-3.961,2.443s-.772-1.67-.777-2.577c-.056-10.436-.045-20.872-.024-31.308,0-1.821.122-3.584-2.511-3.564-1.288.009-1.036-1.069-1.161-1.915-.591-4.013-.611-4.005-4.645-3.993-1.643.005-3.288.039-4.927-.033-3.834-.167-4.575-1.018-4.724-4.939-.07-1.869.6-3.815-.506-5.945a6.381,6.381,0,0,0-.643,1.532c-.141,1.63-.212,3.267-.279,4.9-.153,3.7-1.239,4.65-4.825,4.306-1.535-.148-3.082-.223-4.624-.226-3.7-.009-4.082.369-4.448,4.058-.087.877.406,2.24-1.119,2.187-2.969-.1-2.875,1.827-2.873,3.864q.02,16.524-.017,33.048c-.008,3.258-1.062,3.625-4.108,2.782-2.939-.814-5.924-2.276-9.154-1.3-1.416.428-2.808,2.047-4.176-.146-.253-.407-.807-.157-1.222.244a5.273,5.273,0,0,1-6.587.591,6.963,6.963,0,0,0-3.722-1.35c-1.084-.121-3.041.315-2.14-2.065.069-.183-.349-.708-.644-.837-.546-.238-.867-.031-.837.675.035.806-.6.927-1.2.8-.7-.142-.713-.791-.834-1.365-.233-1.108.336-2.451-1.025-3.621a21.436,21.436,0,0,0-.7,3.358c-.054,1.3-.714,1.791-1.83,2.22-4.886,1.877-7.276.8-8.636-4.235-.513-1.9-1.125-.629-1.625-.2-.637-1.086.531-2.116-.364-3.472a9.154,9.154,0,0,0,.051,5.792c.265.824.333,1.515-.644,1.9-.88.344-1.553.16-1.8-.8a1.832,1.832,0,0,0-1.837-1.511c-.941-.085-2.4.513-2.44-1.193-.04-1.522-.688-3.235,1.541-4.155,1.6-.659,1.909-8.357.526-9.318a3.288,3.288,0,0,0-1.376-.372c-2.865-.413-3.828-.557-4.155-1.89a2.5,2.5,0,0,1-.5-.512,2.907,2.907,0,0,1-.723-.092,3.061,3.061,0,0,1-.811-.364l-.022.008c-.844.206-1.215-.35-1.478-1.037-.192-.5-.079-1.218-.9-1.3-1.178.554-.789,2.787-2.319,2.631-1.712-.175-.234-2.56-1.594-3.192-1.2.141-.581,1.91-2.154,1.933-3.7-7.293-7.46-14.66-11.155-22.06-.528-1.057-.752-2.284-2.3-2.122-1.453.153-2-.463-2.275-1.9a16.917,16.917,0,0,1-.711-3.542c.022-3.277-2.812-2.318-5.715-2.6,3.069-1.2,1.411-3.3,2.252-4.832,1.143-2.078.854-3.274-2.052-3.422-3.851-.2-4.562-1.889-2.544-5.013,1.042.357.693,1.5,1.206,2.147a1.1,1.1,0,0,0,1.257.479c.3-.114.768-.57.716-.734-.414-1.318-.2-3.519-1.758-3.6-2.11-.109-1.69-1.287-1.809-2.428-.078-.753.182-1.606-.464-2.2-2.021-1.856-1.66-4.7-2.916-6.9-1.414-2.486-1.927-5.366-2.778-8.274-.376,3.9-2.167,7.1-3.482,10.457a1.383,1.383,0,0,0-.164.841c.832,2.153-.751,3.321-1.949,4.517-1.314,1.312-2.883,2.3-1.115,4.432a2.9,2.9,0,0,1,.575,2.74c-1.055,3.112-.669,6.3-.364,9.454a1.781,1.781,0,0,1-.664,1.944,29.37,29.37,0,0,0-6.52,7.5c-1.014,1.621-3.215,2.575-3.169,5.206-2.614-3.633-7.713-3.546-10.281-7.266-.319-.464-.822-.057-1.283.094-2.454.807-4.662-.279-6.886-1.063-.516-.183-1.112-.659-.807-1.33,1.515-3.336-.983-6.071-1.171-9.171-.775,3.1-2.575,5.967-1.415,9.31.3.863-.578,1.371-1.34,1.6-.83.249-1.7.363-2.549.547-14.26,3.1-25.144,14.314-26.187,27.413-.243,3.05-1.384,3.656-4.086,3.587-6.084-.155-12.174-.056-18.262-.052-4.2,0-4.315.125-4.333,4.447,0,1.146,0,2.293,0,3.439-1.045-4.084.031-8.086.026-12.126q-.033-29.035-.049-58.073a2.9,2.9,0,0,1-1.116.462c.042,1.4-.075,2.8-1.9,3.008-2.859.322-6.137,1.454-8.553-.952-2.743-2.732-5.317-3.156-8.277-.74-1.324,1.081-2.789,1.536-4.1.1a18.5,18.5,0,0,1-2.931-3.933c-2.59-5.066-5.248-10.118-7.433-15.363-1.271-3.053-3.89-5.273-4.731-8.522-.08-.309-.768-.572-1.212-.657-1.8-.343-3.737-1.152-5.4-.785-3.064.677-3.931-.448-3.82-3.184,0-.058-.306-.128-.518-.211-.752,1.028-.411,2.219-.414,3.323q-.037,20,.005,40.005c.007,2.641.02,5.192-1.912,7.349-.8.889-.711,2.146-.675,3.33a23.874,23.874,0,0,1-.1,4.911,4.3,4.3,0,0,1-3.942,3.665c-1.692-.022-.759-2.226-.771-3.4q-.136-13.355-.144-26.709c-.024,0-.049,0-.074.006.071-19.543.842-84.353,1.453-99.9.2-5.211-1.262-10.863,2.1-15.739a.875.875,0,0,0-.031-.82c-1.58-1.829,1.162-4.34-.955-6.109-.1-.083.233-.929.549-1.214a2.952,2.952,0,0,0,.89-2.646c-.412-4.127,1.432-7.575,3.067-11.149,3.134-6.852,8.2-13.057,6.891-21.426-.423-2.71,1.1-6.008-.518-8.225-2.771-3.787-2.92-8-3.515-12.235-.281-2-.65-4-1.045-5.983-.148-.744-.5-1.9-1.281-1.676-2.676.763-2.382-1.276-2.881-2.688-.533-1.509-.606-3.8-2.121-4.18-2.761-.7-2.345-2.506-2.493-4.412-.2-2.574,1.459-5.938-2.736-7.02-.321-.083-.628-.778-.69-1.224-.464-3.338-2.449-6.267-2.055-9.906a104.469,104.469,0,0,0,.089-11.876c-.016-2.483-.621-5.009.831-7.349a1.216,1.216,0,0,0-.473-1.772c-1.736-.832-1.328-2.384-1.4-3.78-.585-11.117.678-22.236-.372-33.385-.516-5.482-.931-11.175.533-16.7a1.7,1.7,0,0,0-.231-1.363c-1.35-1.472-1.022-3.254-1.032-4.961-.028-4.61-.01-9.22-.01-13.83l-.959-.072a5.923,5.923,0,0,0-.3,1c-.746,6.244,1.289,12.7-1.44,18.8-.1.215.113.554.143.84.7,6.572,1.667,13.15-.631,19.635a2.425,2.425,0,0,0,.131,1.663,9.65,9.65,0,0,1,.555,4.248c.012,7.441.05,14.882-.023,22.321-.021,2.1.813,4.51-1.7,5.994-.507.3-.358,1.082-.044,1.6.91,1.51.7,3.176.706,4.805.032,5.7.5,11.452-.115,17.083-.36,3.3-.648,7.306-4.481,9.254-1.116.568-1.154,1.748-1.133,2.8.031,1.54.255,3.076.324,4.618.039.848.231,2.148-.674,2.332-3.459.7-3.4,3.757-4.425,6.1-.3.678-.473,1.96-1.227,1.745-3.107-.888-2.571,1.691-2.831,3.037-.64,3.31-.413,6.865-1.483,10-1.892,5.539-4.986,10.743-3.123,16.94-1.878,2.982.056,5.505.99,8.144a7.159,7.159,0,0,0,.607,1.315,4.137,4.137,0,0,1,.488,1.075,2.964,2.964,0,0,1,.441.99,2.894,2.894,0,0,1,.57,1.123c2.537.387,3.671,1.776,5.23,4.487,1.248,2.17,1.76,4.607,3.159,6.7a7.966,7.966,0,0,1,1.3,4.94c-.09,1.49-.438,3.125.678,4.461.458.548.666,1.133.258,1.682a39.423,39.423,0,0,1-.473,4.443c.007.139.013.279.02.419,1.544,2.823,1.617,6.381,1.775,9.882a23.45,23.45,0,0,1-.344,6.346,3.013,3.013,0,0,0,.019,1.983c2.185,3.582,1.306,7.52,1.352,11.311.137,11.3.137,22.594.108,33.892,0,.712-.074,44.962-.279,53.77-.191,0-.382.01-.574.011a2.406,2.406,0,0,1-1.291.57c-2.919.521-6,3.24-8.538-.536a2.847,2.847,0,0,0-2.781-1.6,6.006,6.006,0,0,1-5.974-2.781c-.563,6.3,3.311,11.474,1.077,17.355,0-2.03,0-3.663,0-5.3s.172-3.278-1.238-4.576a2.19,2.19,0,0,1-.486-1.607c.637-7.381-1.691-14.318-3.144-21.385a10.85,10.85,0,0,0-.254-1.422c-.282-.806.45-2.377-.961-2.272a2.621,2.621,0,0,0-2.492,2.434c-.034,2.007-.515,3.515-2.589,4.331a2.361,2.361,0,0,0-1.144,2.515c.362,2.516-1.127,4.822-.574,7.369a2.374,2.374,0,0,1-2.108,2.678c-1.088.171-.857-1.308-.982-2.049-.62-3.677-.309-7.41-.713-11.143a170.7,170.7,0,0,1-1.292-24.48c.505-14.189-.089-28.389-.013-42.584.011-2.052.7-4.06.5-6.131a24.15,24.15,0,0,1-1.648-3.752c-1.844-.247-2.362-1.361-2.332-3.541.116-8.309.041-16.62.04-24.93q0-30.875.013-61.747c0-1.509-.513-3.262.6-4.471.945-1.023,1.652-1.879,1.029-3.255-.741-1.637-2.28-1.19-3.559-1.206-4.638-.057-9.277-.025-13.915-.046-1.174-.006-2.583.012-2.609-1.589-.072-4.527-.66-9.1.283-13.567.645-3.049.691-3.277-2.385-3.4-2.205-.09-4.822.849-6.513-.483-1.968-1.55-.632-4.359-.866-6.6-.153-1.468-.493-2.419-2.228-2.24-3.034.313-3.458-1.9-3.679-4.078a8.6,8.6,0,0,1,.778-3.654c.583-1.642.859-3.268-1.839-2.784-.932.167-1.256-.373-1.379-1.077-.724-4.163-1.748-8.282-2.46-12.42-.726-4.221-.442-8.646-.651-12.98-.136-2.811-1.445-5.926.781-8.626a1.162,1.162,0,0,0-.356-1.571c-1.279-.934-1.015-2.4-1.339-3.689-.125.1-.235.139-.255.206a23.788,23.788,0,0,0-.9,8.627,103.621,103.621,0,0,1-2.87,29.743c-.205.883-.186,2.149-1.629,1.908-2.415-.4-2.017,1.013-1.637,2.414.252.931.665,1.821.877,2.759.622,2.748-.779,4.981-3.444,5.287a2.122,2.122,0,0,0-2.155,2.476c.009,1.352-.077,2.709-.005,4.057.1,1.99-.786,2.819-2.751,2.758-2.027-.062-4.058-.005-6.087.02-1.31.016-2.512.455-2.146,1.994,1.078,4.535.88,9.1.889,13.7,0,2.341-.841,2.851-2.832,2.836q-7.392-.054-14.784.029c-2.416.029-3.5,1.5-2.127,3.228,1.6,2.007,1.417,4.111,1.419,6.279q.031,45.657.006,91.315c-.046,28.37.237,56.741-.252,85.091-2.749.043-3.145-1.74-3.1-3.779.068-2.987-.273-5.995.4-8.956.176-.772.382-1.83-.291-2.17-2.286-1.157-2.674-4.029-4.893-5.163a2.772,2.772,0,0,1-1.521-3.173c.606-2.618-.786-4.505-1.583-6.439-2.6.986-2.124,3.095-2.124,5a3.616,3.616,0,0,1-1.438,3.3c-2.646,1.813-3.885,5.023-6.681,6.694a1.465,1.465,0,0,0-.609,1.507,51.971,51.971,0,0,1-.05,6.765c-.208,3.712-.06,3.72-3.531,2.857-2.68-.666-3.669.126-3.581,2.841.031.931.005,1.863.005,2.894a13.1,13.1,0,0,1-3.125-6.12,3.169,3.169,0,0,1-.621.085c-5.868.239-11.7,1.1-17.587.967a2.954,2.954,0,0,1-1.309-.323c-4.046-.011-8.093-.164-12.137-.085-2.336.045-3.789-.108-4.687-.744a3.214,3.214,0,0,1-2.5.456q-.023,15.863-.034,31.724c0,2.223-.03,4.445-.045,6.668-.009,1.275-.295,2.4-1.871,2.356-2.783-.078-5.971,1.012-8.231-.493-1.942-1.292-.553-4.333-.82-6.582a1.744,1.744,0,0,1-.007-.289c.075-1.846-.813-2.612-2.648-2.54-1.929.077-3.864,0-5.8.011-1.5.008-2.213-.856-2.006-2.2s-1.175-3.15,1.15-3.927c2.8-.935,2.962-1.957,1.182-4.491-1.207-1.718-3.83-3.246-1.242-5.893a1.94,1.94,0,0,0-.183-1.895c-1.336-1.137-1.144-1.836-.065-3.168,1.417-1.75-.725-2.636-1.34-3.954-.446-.958,3.035-2.615,1.289-4.165-2.687-2.385-2.359-5.283-2.484-8.174-.419-9.707-4.3-17.311-13.135-21.941-2.115-1.109-2.511-2.553-1.163-4.446,1.025-1.439,1.29-2.776-.087-4.125-.366-.359-.65-.824-.379-1.292,1.411-2.44-.139-3.333-2.419-3.853,2.1-1.712,3.243-3.285.662-5.029-.587-.4-.592-.553-.057-.968,2.809-2.177.838-3.493-.979-4.77,2.5-2.238,2.435-2.893-.573-5.361,1.594-.687,2.607-2.221,1.542-3.4-1.992-2.2,1.238-5.184-1.435-7.022,2.026-2.212.233-3.732-.83-5.544a7.226,7.226,0,0,1-.7-4.224,18.958,18.958,0,0,0-1.063-7.95c-.2-.555-.362-1.164-1.122-1.067-.577.073-.723.6-.823,1.068a39.452,39.452,0,0,0-.76,3.945c-.4,3.669.436,7.577-2.295,10.777a1.714,1.714,0,0,0-.114,1.636c1.856,2.1-2.084,4.942.916,6.828-.106.151-.179.36-.324.444-1.95,1.129-2.159,2.218-.579,4.1,1.461,1.738-2.408,2.081-1.561,3.958a2.354,2.354,0,0,0,.963.982c.93.524,1.16,1.013.109,1.625-3.026,1.762-1.288,3.08.532,4.315-3,2.1-2.992,3.01.133,5.739-2.256.472-3.608,1.506-2.7,3.974.119.322-.242.894-.5,1.27a3.052,3.052,0,0,0,.011,3.967c1.348,1.8.848,3.214-1.16,4.172a18.223,18.223,0,0,0-6.157,4.267c-2.018,2.338-4.375,4.637-5.547,7.4-2.083,4.9-1.935,10.357-2.458,15.613-.13,1.3-.489,1.85-1.785,2.106-1.475.291-2.408,1.345-1.123,2.666,1.448,1.488,1.764,2.817.713,4.622a3.2,3.2,0,0,0,.123,2.813c.245.6.8,1.233.142,1.85-2.086,1.955,1.133,2.96.789,4.4-.411,1.719-3.694,1.04-3.454,3.654a7.393,7.393,0,0,1-.186,1.725c-.14.934.294,2.2-.6,2.721a7.632,7.632,0,0,1-5.566.828,3.469,3.469,0,0,1-2.112-1.429,2.807,2.807,0,0,1-3.857-.337c-.038,17.551-.18,35.1-.566,52.65-.043,1.988-.159,3.934-1.587,5.5-.557-28.148-.7-56.273-.751-84.39a3.286,3.286,0,0,1-1.541.055c-1-.2-1.98-.371-2.973-.5a3.887,3.887,0,0,1-1.981.405q-20.581-.012-41.164.017a3.108,3.108,0,0,1-2.521-.871c-1.289.116-2.616.149-3.931.275a2.581,2.581,0,0,1-2.171-1.011q-.009,8.817-.019,17.633c0,.963.391,2.082-.584,2.952-.915-.736-1.706-1.916-2.558-1.962-3.478-.19-3.22-2.482-3.219-4.874q.036-74.212.027-148.424c0-6.861-.041-13.722.015-20.582.019-2.326-.9-3.333-3.28-3.25-3.088.108-6.184.02-9.276-.01-.963-.01-2.21.042-2.307-1.206-.2-2.575-1.849-2.807-3.841-2.792-1.069.008-2.521-.067-2.293-1.5.343-2.156-.576-4.324-.04-6.307.819-3.031-.607-3.3-2.934-3.21s-4.813-.512-6.908.176c-2.167.712-3.474-2.777-5.49-.624a5.05,5.05,0,0,1-.585-.922c-.261-.691.188-1.537-.478-2.236-.708.862.177,2.189-1,2.991-1.481-1.661-.483-3.927-1.488-6.476-.126,2.082-.2,3.337-.278,4.592l-.453-.017v-4.987a40.757,40.757,0,0,0-.909,5.4c-.251,1.444-.786,2.985-2.459.913-.368-.455-.79-.728-1.1-.153-1.04,1.949-2.832,1.293-4.386,1.325-3.38.071-6.763.03-10.145.065-1.093.011-2.518.176-2.251,1.563.412,2.146-.361,4.262.075,6.3.513,2.4-.306,3.213-2.613,3.151-1.42-.038-3.111-.178-3.339,1.876-.2,1.807-1.291,2.123-2.822,2.1-3.091-.04-6.184.043-9.276-.007-1.877-.03-2.73.5-2.714,2.661.109,15.749.048,31.5.153,47.25.011,1.7-1.425,3.248-1.113,4.376a23.073,23.073,0,0,1,.563,6.247q.127,48.267.056,96.534a4.256,4.256,0,0,1-1.154,3.435,8.249,8.249,0,0,0-2.716,7.843c.247,1.367-.011,2.646-1.43,3.112-2.039.671-3.309,1.818-3.236,4.292a15.414,15.414,0,0,1-2.365-8.372q.05-71.457-.021-142.915c0-7.151-.06-14.3.011-21.452.023-2.25-.837-3.122-3.087-3.034-3.087.121-6.183.042-9.275.013-1.041-.009-2.464.141-2.527-1.282-.117-2.677-1.749-2.793-3.754-2.729-.983.032-2.683.185-2.224-1.359.7-2.342-.392-4.608.222-6.875.521-1.925-.467-2.71-2.268-2.73q-3.913-.045-7.827-.03c-1.772.01-3.6.176-3.782-2.179-1.2-.007-.591,1.607-1.731,1.37-.7-.9.122-2.313-.934-3.123-1.055.878-.087,2.377-1.253,3.2a6.165,6.165,0,0,1-.381-4.112,2.292,2.292,0,0,0-1.668-2.777c-1.432-.006-.639,1.557-.788,2.439-.143.846.013,1.739-.063,2.6-.161,1.837-.375,3.733-2.715,1.433-.42-.414-.582-.327-.818.106-.784,1.435-2.183,1-3.372,1.021-3.671.056-7.344.006-11.015.033-1.291.009-2.934.145-2.64,1.845.356,2.058-.377,4.06.027,6.016.473,2.289-.006,3.325-2.545,3.051-1.351-.146-2.9-.007-2.961,1.907-.072,2.1-1.408,2.2-2.977,2.192-2.995-.024-5.995.1-8.985-.024-2.419-.1-3.207.926-3.178,3.266.091,7.439.031,14.88.03,22.321,0,7.136,0,14.273,0,21.812-1.439-1.09-2.783-.95-4.107-.95q-5.508,0-11.015.005c-5.036,0-6.331,1.171-6.949,6.222-.109.9.063,1.789-1.447,1.992-7.359.99-14.7.25-22.046-.014-1.938-.069-3.593.019-3.577,2.529.044,6.856-.156,13.709.157,20.57.254,5.573.1,11.165.155,16.749.058,5.953-.846,11.88-.863,17.8-.064,21.535-.284,43.07.157,64.607.245,11.958-.151,23.93-.249,35.9-.027,3.285-.02,6.57-.03,9.856,0,1.346-.487,2.228-2.018,2.226s-2.019-.924-1.986-2.252c.054-2.194-.292-4.385.813-6.521,1.046-2.023.926-3.932-1.713-4.851-.6-.209-1.622-.891-1.564-1.067.813-2.5-.6-4.82-.452-7.246.278-4.661-1.971-8.94-2.111-13.546-.014-.441-.257-1.041-.882-.905a1.187,1.187,0,0,0-.7.78c-.752,3.4-1.232,6.855-1.864,10.268a56.093,56.093,0,0,0-.891,10.984c.011.758-.427,2.8-2.374,2.776-2.9-.037-5.7.813-8.634.722-5.116-.159-10.241-.051-15.363-.039-4.428.011-4.425.022-5,4.473-.051.4-.228.732-1.04.557-.506-1.849.9-3.567.79-5.428-.036-.613.016-1.233-.719-1.342a1.862,1.862,0,0,0-1.355.259c-.491.439.11.83.342,1.208.192.312.522.588.142,1.025-2.523,0-5.077,0-7.631,0-.923,0-1.726.045-1.8,1.309a6.959,6.959,0,0,1-6.966,6.579c-4.635-.008-9.27.034-13.9-.047-2.035-.035-4.32.687-5.827-1.547a.806.806,0,0,0-1.275.023.813.813,0,0,0-.024,1.275c3.787,3.276-.143,2.483-1.442,2.5-8.888.115-17.779.113-26.668.085-2.786-.008-5.7-.4-5.2,3.908a.908.908,0,0,1-.324.762c-3.4,1.32-2.318,4.27-2.338,6.689-.081,9.785-.033,19.572-.033,29.706-2.233-2.182-2.873-2.083-3.582.284-.28.932-.255,1.978-1.536,2.126-1.419.163-1.711-.953-2.171-1.912a3.92,3.92,0,0,0-1.784-2.214c-1.834-.719-1.942-2.148-1.933-3.774.032-5.387.012-10.774.012-16.162a4.82,4.82,0,0,0-.583,2.774q-.035,15.654-.075,31.308c-.014,3.951-.049,3.968-4.111,3.981-4.155.012-8.31.005-12.465.037-.78.006-1.679.113-1.7,1.147-.013.749.7.715,1.288.8,3,.455,4.629,2.692,4.476,5.748a72.553,72.553,0,0,0-.1,9.265c.214,2.745-.717,3.478-3.369,3.406-6.276-.17-12.561-.006-18.841-.069-2.19-.022-3.278.746-3.022,3.051a18.89,18.89,0,0,1,.03,2.607c-.043,1.5.735,2.081,2.146,2.051.869-.018,1.739.017,2.609.017h1.739v12.574H2658.332v-15.473Zm-777.919-46.227c-.532-4.927,1.18-7,6.648-8.236C1877.45-1260.377,1875.065-1257.974,1873.269-1254.736Zm-589.116-34.071a27.121,27.121,0,0,0-5.048,1.191c-3.649,1.2-7.088-.675-7.426-4.65-.351-4.115-.1-8.284-.073-12.43.007-1.157.724-1.61,1.829-1.83a58.753,58.753,0,0,1,11.226-.641c1.747-.01,2.421.8,2.388,2.471-.044,2.217-.011,4.435-.011,6.653h.012c0,1.929-.08,3.862.021,5.785C1287.185-1290.117,1286.3-1289.081,1284.153-1288.807Zm560.639,79.435c0-.182,0-.368.008-.554a5.028,5.028,0,0,0,.208.569C1844.927-1209.357,1844.862-1209.366,1844.792-1209.372Zm-.06-2.25a1.912,1.912,0,0,0-1.906-1.645,19.744,19.744,0,0,1-.443-4.37c.024-1.815.588-3.629,2.743-4.034,1.034-.194,2.7-.715,1.878,1.632-.349,1,.551,1.874,1.127,2.648.941,1.262.73,2.217-.546,3C1846.327-1213.623,1845.076-1212.858,1844.732-1211.622Zm2.5,3.113-.015-.015c-1.227-1.181-.933-2.295.3-3.194,1.128-.82,2.357-1.5,3.671-2.323a6.259,6.259,0,0,1-1.209,2.648c-.6.991-.509,1.809.566,2.293a8.656,8.656,0,0,1,1.07.591Zm16.5-2.06c-1.236.09-2.214.714-2.194,2.06h-4.158c.043-.742-.786-1.251-1.5-1.719a1.143,1.143,0,0,1-.569-.846c-.2-1.5,2.4-6.171,3.812-6.89.406-.207,1-.472,1.03.059.124,2.447,3.486,2.982,3.218,5.705-.076.767,1,1.116,1.836,1.14s1.677.005,2.515.005A14.808,14.808,0,0,1,1863.727-1210.569Zm24.731-.051c-.946.013-2.2-.232-2.048,1.4.023.244.047.484.084.714h-6.734c.013-.117.026-.234.031-.361.065-1.533-.838-1.772-2.046-1.763-1.826.013-3.652,0-5.478,0a4.457,4.457,0,0,1,2.139-.405c2.579-.116,5.247.534,7.592-1.312.9-.708,2.131-.273,3,.419a4.708,4.708,0,0,0,3.207.9c2.717-.024,5.435-.008,8.152-.008A57.448,57.448,0,0,1,1888.458-1210.62Zm-2.7-40.785c-.7-.1-.741-.764-.789-1.336-.124-1.481-.24-2.963-.4-4.956-.022-.631.069-1.712,1.607-1.675,1.584.038,1.3,1.255,1.2,2.184-.163,1.547-.461,3.08-.741,4.613C1886.54-1252.062,1886.6-1251.286,1885.753-1251.405Zm12.334,6.761c-.016.7.1,1.491-.5,2.013-.818.71-1.737,1.861-2.359-.214a5.6,5.6,0,0,0-.7-1.32c-.405-.638-.664-1.246-.913.163-.135.766-.81-.52-1.476-.055,1.585,1.9.394,2.329-1.372,2.46-.547.04-.537.1-.627,1.127-.041.476-.476.484-.779.531a2.277,2.277,0,0,1-2.461-.869,1.925,1.925,0,0,1-.2-1.241c.8-5.188,1.627-10.371,2.5-15.876,2.183,1.746,1.34,3.562.9,5.248s-1.06,3.342-1.6,5.01c1.885-1.649,2.717-3.781,4.01-6.189.3,2.757-.547,5.04-.365,7.421,1.352-1.922,1.6-4.3,2.578-6.945.722,2.07.377,3.856,1.443,5.3a38.425,38.425,0,0,0,.185-8.931,8.539,8.539,0,0,1,1.837,5.309C1898.094-1249.35,1898.138-1246.995,1898.087-1244.644Zm148.6-36.195c4.786-4.236,7.293-9.687,8.79-15.773.741-3.012,1.861-5.931,2.809-8.892l.66.2c-.925,3.12-1.832,6.245-2.782,9.358-.771,2.525-1.65,5.018-2.37,7.556a8.5,8.5,0,0,1-2.338,3.271c-2.126,2.352-4.012,4.944-6.6,6.882A4.259,4.259,0,0,1,2046.687-1280.839Zm3.421,21.766c.383,1.96-.336,3.035-2.147,3-1.234.135-1.428-.334-1.312-1.736a101.11,101.11,0,0,0,.226-14.675,8.1,8.1,0,0,0-.558-3.517.838.838,0,0,1,.448-1.249c.944-.261,1.937-.73,2.9-.35.751.3.5,1.078.369,1.7A42.479,42.479,0,0,0,2050.108-1259.073Zm.507,7.991,0,.472H2014.64c0-.157,0-.315,0-.472Zm-7.267-3.82c.036.922-1.553.532-2.41.534q-16.787.044-33.573.011c-.556,0-1.113-.051-2.042-.1.773-.782,1.067-1.37,1.981-1.335,11.184.435,22.372.075,33.558.231C2041.734-1255.546,2043.3-1256.173,2043.348-1254.9Zm-4.962-18.607c1.141-.5,1.4-1.535,2.24-3,.39,1.956.752,3.386.932,4.839.085.687.308,1.687-.942,1.766-1.042.066-2.127.044-2.435-1.189C2037.986-1271.874,2037.088-1272.945,2038.386-1273.509Zm1.489,9.979c.02,1.04-1.36.614-2.12.619-10.63.073-21.26.128-31.89.107a16.079,16.079,0,0,1-3.535-.881,2.558,2.558,0,0,1,1.947-.452q16.7-.016,33.394.009C2038.462-1264.127,2039.857-1264.493,2039.875-1263.53Zm-3.961-9.917.083.125h-71.625v-.125Zm-73.086,9.323c11.058-.034,22.117-.021,33.175-.02h1.686c-1.662,1.318-3.519,1.3-5.44,1.287-9.774-.066-19.549-.018-29.323-.055-.849,0-2.372.461-2.4-.54C1960.49-1264.57,1962-1264.122,1962.828-1264.124Zm34.824,25.928h-.009l-.009,0h.018Zm-.091-.006h-.037l-.036,0h.035Zm-.27-.011h0Zm-.124,0h-.037l.019,0Zm-.22.014h0Zm-.131.017-.012,0h-.011l.011,0Zm-.2.034-.01,0-.01,0,.009,0Zm-.131.029-.008,0-.007,0,.007,0Zm-.188.053-.012,0-.012,0,.012,0Zm-.123.038-.005,0-.006,0,.006,0Zm-.19.073-.017.007-.017.007.016-.007Zm-.107.044,0,0h0l0,0Zm-.562.3,0,0h0l0,0Zm-.08.051-.011.007-.014.009.011-.007Zm-.189.124,0,0h0l0,0Zm-45.366-13.688h36.04l.015.552h-36.056C1949.681-1250.755,1949.682-1250.939,1949.682-1251.123Zm-.794,17.32c1.413.006,1.712-.915,2.04-2.076.268,1.266.768,2.046,2.1,2.048s1.879-.737,2.121-2.069c.338,1.266.744,2.186,2.234,2.095,1.335-.081,1.6-.944,1.941-2.063.164,1.3.658,2.092,2.071,2.058,1.329-.033,1.705-.786,1.743-2.563.71,1.575,1.04,2.764,2.6,2.549,1.22-.167,1.6-.925,1.835-2.092.291,1.3.715,2.124,2.092,2.1,1.347-.021,1.908-.737,2.145-2.1.389,1.316.864,2.279,2.419,2.1,1.255-.145,1.444-.939,1.631-2.039a2.229,2.229,0,0,0,2.808,2.043c1.063-.14,1.288.477,1.362,1.41.327,4.087.351,4.086-3.773,4.086q-17.758,0-35.519-.018c-.943,0-2.271.5-2.739-.575a7.446,7.446,0,0,1-.1-4.419c.162-.791,1.085-.473,1.684-.47,1.358.009,2.472-.23,2.563-2.187.082,2.053,1.289,2.245,2.732,2.169,1.246-.066,1.837-.663,1.768-2.071C1947.039-1234.667,1947.484-1233.809,1948.888-1233.8Zm-2.609-16.444q0,.153.006.306h-23.8l-.014-.306Zm-2.271,5.542c0,.095,0,.19.007.286h-23.7l-.006-.286Zm-6.976,5.654c-6.271.858-12.573.475-18.866.545-.006-.181-.011-.363-.016-.545Zm-30.559-49.505a3.354,3.354,0,0,1,2.883-.193c1.02.385,2.093,1,1.922,2.234-.181,1.3-1.445.77-2.284.891a7.383,7.383,0,0,1-1.063.009,5.474,5.474,0,0,1-.85-.012c-.763-.135-1.929.411-2.109-.8C1904.825-1287.417,1905.627-1288.091,1906.473-1288.556Zm12.322,67.517c-3.918,0-7.835.014-11.752,0-.976,0-2.119.169-2.243-1.308a2.015,2.015,0,0,1,1.514-2.505c1.783-.71,3.293.841,4.827.031,1.632-.862,3.551.719,5.064-.708.91,1.615,2.471-.32,3.508.64.095.087.36.162.384.128,1.215-1.725,3.04,1.2,4.354-.578.25-.34,1.075,1.025,1.761.585,1.7-1.094,3.287.4,4.973.082,1.412-.268,1.758.75,1.734,2.015-.027,1.37-.788,1.638-1.946,1.631C1926.914-1221.054,1922.854-1221.039,1918.8-1221.039Zm13.9,10.552a.748.748,0,0,1-.879.728c-.4-.087-.5-.507-.5-.859-.024-1.211-.009-2.422-.009-3.633h-.011c0-1.278-.022-2.557.011-3.835.011-.442.212-.855.752-.869s.769.366.814.815A39.466,39.466,0,0,1,1932.691-1210.487Zm54.069-20.861c.142,5.923.047,11.852.028,17.778,0,.736.222,1.559-.547,2.3a4.21,4.21,0,0,1-.929-3.013c0-1.928-.034-3.856-.006-5.784.025-1.71-1.15-1.748-2.337-1.7-1.215.046-2.8-.384-2.894,1.6-.088,1.923-.023,3.854-.046,5.781a5.981,5.981,0,0,1-.158,1.682c-.2.64-.292,1.486-1.261,1.5-1.019.017-1.047-.847-1.2-1.5a25.8,25.8,0,0,1-.194-6.4c.038-1.839-.406-2.764-2.49-2.734-1.95.028-2.709.682-2.554,2.649a33.869,33.869,0,0,1-.015,5.136c-.077,1.051.139,2.715-1.307,2.747-1.514.034-1.286-1.637-1.35-2.687a44.547,44.547,0,0,1-.015-5.566c.122-1.923-.884-2.274-2.488-2.247-1.553.026-2.906.075-2.816,2.2.073,1.71.035,3.427.011,5.14a7.482,7.482,0,0,1-.209,1.888c-.161.575-.264,1.381-1.156,1.282-.736-.083-.758-.8-.868-1.324a26.7,26.7,0,0,1-.173-6.4c.067-1.966-.486-2.832-2.626-2.82-2.091.012-2.808.807-2.688,2.8a51.334,51.334,0,0,1,.032,5.779c-.041.782-.161,1.927-1.261,1.953-1.063.024-1.051-1.144-1.1-1.806a64.858,64.858,0,0,1-.129-6.63c.066-2.069-1.239-2.036-2.683-2.055-1.5-.021-2.7.1-2.64,2.109.062,2.279-.026,4.565-.162,6.842-.038.627-.108,1.6-1.119,1.532-.832-.055-.878-.935-.931-1.5-.153-1.628-.192-3.27-.2-4.907-.025-4.034-.022-4.055-2.585-4.061-2.667-.007-2.69.025-2.686,4.165,0,1.214-.008,2.429.042,3.641a3.944,3.944,0,0,1-.29,1.878c-.185.4-.381.805-.875.835-.643.04-.791-.456-.954-.953-.573-1.747-.293-3.544-.312-5.318-.043-4.033-.013-4.033-3.861-4.526.653-.029,1.305-.08,1.958-.081,1.141,0,1.982-.274,1.871-1.686-.074-.952.143-1.753,1.362-1.673,1.092.073,1.2.852,1.122,1.693-.206,2.084,1.351,1.67,2.452,1.634,1.117-.036,2.846.63,2.672-1.633-.075-.969.126-1.734,1.331-1.708s1.351.842,1.261,1.78c-.164,1.7,1.055,1.676,2.115,1.563,1.167-.123,2.961.778,3.076-1.511.045-.883-.028-1.809,1.235-1.817,1.351-.009,1.423.9,1.329,1.919-.1,1.042.5,1.4,1.423,1.421.571.014,1.142.009,1.713.021,1.348.026,2.5-.058,2.009-1.987-.194-.765.229-1.374,1.179-1.4a1.221,1.221,0,0,1,1.412,1.247c.067.734-.36,1.749.716,1.984a7.332,7.332,0,0,0,4.015-.088c.75-.266.479-1.087.453-1.713-.034-.815.188-1.4,1.159-1.424.89-.02,1.456.45,1.386,1.26-.194,2.246,1.262,2.123,2.759,2.13,1.463.007,2.781.014,2.6-2.075-.07-.8.437-1.3,1.336-1.324a1.209,1.209,0,0,1,1.381,1.479c-.272,2.126,1.167,1.912,2.452,1.9,1.315-.014,2.128,0,2.886-1.831,1.7-4.1.844-8.2,1.149-12.29.141-1.882-.732-2.331-2.4-2.3-3.355.068-6.712.037-10.068,0-.808-.008-1.725.258-2.465-.666,2.081-1.385,4.033-2.23,6.495-.74s4.815.62,6.8-.911C1987.9-1238.106,1986.682-1234.582,1986.76-1231.348Zm-27.119-23c-.57,0-1.141.006-1.71-.027-.415-.025-.995-.014-1.015-.542-.027-.716.65-.6,1.112-.647a12.708,12.708,0,0,1,1.282-.024q16.245,0,32.49.007c1.03,0,2.165-.238,3.2,1.231h-5.861Zm35.306,16.984-.005,0-.008.005.006,0Zm-.164.118,0,0,0,0,0,0Zm-.1.079,0,0-.005,0,0,0Zm-.159.123-.005,0,0,0,0,0Zm-.1.081,0,0,0,0,0,0Zm-.257.209,0,0,0,0,0,0Zm3.247,26.588c-1.137-.069-2.281-.023-3.421-.008-3.161.044-3.164.048-3.164-3.223,0-6.416.011-12.833-.007-19.249,0-1.3.166-2.442,1.66-2.841a4.285,4.285,0,0,0-1.325,3.447c.047,6.339.063,12.679,0,19.018-.02,1.8.525,2.569,2.442,2.515,6.583-.186,5.691.941,5.741-5.587.046-6.054-.017-12.109.027-18.163a4.773,4.773,0,0,0-1.336-3.884c-.044-.009-.085-.013-.128-.02.043.007.084.01.128.019a2.462,2.462,0,0,1,1.66,2.665c-.034,7.7-.051,15.4.011,23.1C1999.706-1210.67,1999.025-1210.069,1997.408-1210.166Zm-30.379-60.9c-.642,0-1.287.032-1.924-.023-.519-.045-1.371.149-1.323-.649.045-.731.878-.528,1.413-.578.425-.039.855-.013,1.283-.013q33.7,0,67.407.023c.919,0,2.639-.443,2.6.547-.052,1.243-1.738.661-2.688.665-11.2.045-22.4.029-33.6.029Zm42.561,58.344c.033,2-.7,2.7-2.62,2.558a37.751,37.751,0,0,0-4.28-.013c-1.482.057-2-.614-1.995-2.059q.056-11.666.008-23.334c0-1.194.306-2.108,1.561-2.465a4.51,4.51,0,0,0-1.245,3.487c.042,7.126.077,14.253-.017,21.378-.027,2.068.7,2.728,2.732,2.665,6.209-.191,5.415.855,5.462-5.454.034-4.489-.144-8.986.059-13.466.138-3.029-.182-5.643-3.048-7.315,2.427.879,3.489,2.441,3.407,5.182C2009.425-1225.279,2009.488-1218.994,2009.59-1212.717Zm44.506-6.871c.046,2.069.1,4.143,0,6.208-.037.789-.156,2-1.135,2.051-1.223.064-1.265-1.238-1.3-2.081-.1-2.136-.062-4.282.006-6.422.067-2.124-1.389-1.935-2.766-1.954s-2.624.039-2.534,1.97c.074,1.567.019,3.141.006,4.711a6.981,6.981,0,0,1-.109,1.914c-.225.747-.055,1.994-1.229,1.961-1.31-.037-1.111-1.378-1.165-2.16a46.017,46.017,0,0,1,.029-5.776c.108-1.917-.625-2.652-2.6-2.669-2.038-.018-2.807.657-2.715,2.727a27.055,27.055,0,0,1-.154,6.4c-.112.578-.113,1.424-1.005,1.419-.845-.005-1.033-.84-1.068-1.4a65.985,65.985,0,0,1-.147-6.611c.079-2.058-.914-2.511-2.741-2.532-1.922-.023-2.745.6-2.588,2.6a37.738,37.738,0,0,1-.014,5.349c-.063.991.088,2.549-1.249,2.576-1.533.031-1.317-1.62-1.4-2.648a37.146,37.146,0,0,1-.022-5.349c.122-1.853-.569-2.527-2.444-2.53-1.933,0-2.728.639-2.59,2.622a33.846,33.846,0,0,1-.043,5.561c-.088.92.1,2.531-1.458,2.364-1.263-.135-1.3-1.516-1.327-2.575-.041-1.641.02-3.283.014-4.925-.012-2.773-.268-2.907-2.837-3.037-2.3-.116-2.5,1.118-2.48,2.928.027,2.13.306,4.285-.225,6.393-.106.42-.053,1.161-.8,1-.5-.111-.414-.694-.415-1.1-.02-8.424-.006-16.848-.066-25.271-.009-1.384,2.012-1.5,1.292-3.487,2.94,2.3,5.411,2.65,8.108,1.063,2.14-1.259,3.93-.067,5.841,1.043-.721.887-1.619.685-2.411.692-3.426.028-6.854.054-10.279,0-1.591-.026-2.347.453-2.282,2.209.11,2.993-.037,5.995.028,8.991.036,1.678,1.175,3.056,1.655,4.639.36,1.189,2.43.547,3.745.512,1.088-.028,1.1-.869,1.059-1.72s.205-1.562,1.278-1.585c1.149-.026,1.518.651,1.47,1.64-.1,2.137,1.469,1.711,2.672,1.721,1.225.011,2.756.365,2.625-1.766-.061-.994.376-1.666,1.515-1.583,1.183.086,1.076.924.981,1.727-.151,1.273.56,1.677,1.658,1.623,1.681-.081,3.986.815,3.7-2.411-.068-.771.69-.984,1.407-.94s1,.462.99,1.133c-.007.816-.409,1.89.813,2.1a6.873,6.873,0,0,0,4-.162c.627-.275.424-.976.408-1.542-.025-.905.289-1.53,1.331-1.531a1.123,1.123,0,0,1,1.246,1.367c-.224,2.382,1.473,1.952,2.844,2s2.673.068,2.354-1.984a1.139,1.139,0,0,1,1.233-1.394c1.038-.034,1.512.56,1.378,1.454-.208,1.389.258,2.074,1.873,2.093C2054.269-1221.905,2054.067-1220.869,2054.1-1219.588Zm2.458-12.678c-.126.7-.274,1.4-.349,2.108a1.822,1.822,0,0,1-2.111,1.848q-15.944-.039-31.887,0c-1.411,0-1.906-.6-1.861-1.937.061-1.825-.637-4.069,2.63-3.674,1.132.137,1.078-1.1,1.583-2.307.057,1.68.575,2.48,1.995,2.409,1.275-.064,1.82-.681,1.779-2.114.6,1.206,1.03,2.281,2.571,2.125,1.276-.128,1.644-.876,1.79-2.118.4,1.313.845,2.167,2.336,2.066,1.332-.09,1.64-.881,1.917-2.057.388,1.29.833,2.285,2.391,2.1,1.259-.15,1.595-.912,1.681-2.117.286,1.3.73,2.13,2.117,2.12,1.341-.01,1.884-.719,1.986-2.143.376,1.412.938,2.236,2.371,2.121,1.225-.1,1.8-.725,1.856-2.114.44,1.261.8,2.247,2.291,2.142,1.345-.095,1.776-.888,1.964-2.127.293,1.108.405,2.122,1.831,2.063C2056.5-1233.916,2056.721-1233.185,2056.554-1232.266Zm4.828,19.887c-.132.493-.26,1.033-.88,1.057-.647.024-.786-.556-.908-1.023-.587-2.248-.062-4.539-.223-6.806-.072-1.014.3-2.17-1.314-2.869,1.279-.135,1.635.3,1.937.807A11.125,11.125,0,0,1,2061.382-1212.379Zm-2.9-36.152c-.069-1.052-.032-2.5,1.292-2.544,2.039-.064,1.51,1.777,1.711,2.949-.026.564-.015,1.064-.079,1.555-.15,1.156-1.008,1.369-1.887,1.11C2057.837-1245.956,2058.552-1247.441,2058.48-1248.531Zm4.448-9.584c-1.71.834-3.779.4-5.686.2-.787-.085-.88-.852-.883-1.512-.011-2.711-.072-5.425.024-8.133a3.273,3.273,0,0,1,3.554-3.438,3.341,3.341,0,0,1,3.645,3.556c.059,1.282.01,2.568.01,3.853h.022a14.59,14.59,0,0,1-.011,1.711C2063.448-1260.585,2064.28-1258.774,2062.928-1258.115Zm9.151,2c-1.744.346-2.869-.866-2.265-2.9,1.144-3.858.253-7.816.977-11.837-.265-1.5-.535-3.161-.859-4.81-.137-.7-.491-1.487.267-1.936.8-.474,1.671-.021,2.468.252a1.18,1.18,0,0,1,.7,1.591c-1.209,4.194-.421,8.439-.376,12.664a15.891,15.891,0,0,0,.445,3.793C2073.749-1258.054,2074-1256.492,2072.079-1256.112Zm1.775-22.98q-3.353-3.745-6.637-7.551a4.823,4.823,0,0,1-.937-1.656c-1.682-5.376-3.325-10.764-4.965-16.153a3.073,3.073,0,0,1-.01-.829c.873.122.819.8.98,1.3,1.371,4.278,2.837,8.53,4.056,12.852a16.053,16.053,0,0,0,4.14,7.092c1.722,1.748,3.292,3.646,5.011,5.569C2074.466-1278.069,2074.189-1278.717,2073.854-1279.092Zm9.32,24.116c-3.675.028-5-.817-5.03-3.026-.028-1.853-.006-3.708-.006-6.268a42.424,42.424,0,0,1,.688-9.924c.191-.861.269-2.089,1.579-1.853,1.352.243,3.274-.319,3.72,1.7a37.457,37.457,0,0,1,.058,16.259,3.732,3.732,0,0,1-.28.8C2083.55-1256.543,2085.468-1254.994,2083.174-1254.976ZM2140.423-1225c-.1.521-.192,1.042-.287,1.563-.522.149-1.047.292-1.565.447a19.149,19.149,0,0,0-7.21,4.2,9.3,9.3,0,0,0-2-.517c-2-.3-2.541-1.111-2.022-3,.466-1.7.724-3.45,1.136-5.483,1.012,1.272,1.711,1.686,1.824-.177a4.632,4.632,0,0,1,1.314-3.092c.726-.717,1.355-2.163,2.441-1.655,1.018.476.943,1.981.885,3.116-.131,2.621.991,3.562,3.492,2.843C2140.355-1227.311,2140.779-1226.941,2140.423-1225Zm-.747-7.745a.667.667,0,0,1-.053,1.1,4.929,4.929,0,0,1-2.653,1.2c-.614-.005-.526-.741-.509-1.213a23.607,23.607,0,0,1,.216-3.161c.284-1.639,1.3-2.361,3.287-2.084C2138.482-1235.481,2138.348-1234.126,2139.676-1232.746Zm2.664-8.4c-.358.469-1.611.9-.17,1.726.6.344-.209.7-.488.786a21.04,21.04,0,0,1-2.274.436,2.851,2.851,0,0,1-2.737-.777c-.879-.914-2.161-1.009-3.291-1.412a1.308,1.308,0,0,1-.988-1.251.87.87,0,0,1,.8-.868c3.281-.288,5.891-2.754,9.226-2.82.655-.014,1.5-.577,1.928.28a2.223,2.223,0,0,1-.4,2.216C2143.519-1242.194,2142.808-1241.757,2142.34-1241.143Zm1.52,16.7c.061-.119.122-.238.178-.36.231-.5.778-1.3,1.438-1.049a1.043,1.043,0,0,1,.61.865Q2144.97-1224.719,2143.86-1224.44Z" transform="translate(-738.332 1653.982)"/></svg>